<svg xmlns="http://www.w3.org/2000/svg" viewBox="0 0 343.8 403.26">
  <defs>
    <style>
      .a {
        fill: #1c8e43;
      }
    </style>
  </defs>
  <title>android_s</title>
  <g>
    <path class="a" d="M272.5,81.22c-9.8-19.7-27.1-36-48.9-46.1l20.2-29.3a3.4,3.4,0,0,0-.28-4.8l-0.12-.1a3.4,3.4,0,0,0-4.8.28l-0.1.12a2.09,2.09,0,0,0-.4.6l-21,30.4a125.3,125.3,0,0,0-90.6,0L105.6,1.82a3.47,3.47,0,0,0-6.1,3.3c0.1,0.2.3,0.4,0.4,0.6L120.1,35c-21.7,10.1-39,26.4-48.8,46.2a85.88,85.88,0,0,0-8.6,30.2H281A83.68,83.68,0,0,0,272.5,81.22ZM114.2,69.12a12.1,12.1,0,1,1,12.1,12.1h0a12.08,12.08,0,0,1-12.1-12.06s0,0,0,0h0Zm91.2,0a12.1,12.1,0,1,1,12.1,12.1h0a12.08,12.08,0,0,1-12.1-12.06s0,0,0,0h0Z" transform="translate(0 -0.06)"/>
    <g>
      <path class="a" d="M321.9,126.62a20.9,20.9,0,0,0-2.5-.1,24.43,24.43,0,0,0-24.4,24.4h0v98.5a24.4,24.4,0,0,0,48.8,0V150.92A24.49,24.49,0,0,0,321.9,126.62Z" transform="translate(0 -0.06)"/>
      <path class="a" d="M24.3,126.52A24.33,24.33,0,0,0,0,150.82H0v98.5a24.4,24.4,0,1,0,48.8,0h0v-98.5a24.5,24.5,0,0,0-24.5-24.3h0Z" transform="translate(0 -0.06)"/>
      <path class="a" d="M62.7,305.12a19.1,19.1,0,0,0,19.1,19.1h22.6v54.7a24.4,24.4,0,0,0,48.8,0v-54.7h37.4v54.7a24.4,24.4,0,0,0,48.8,0v-54.7H262a19.1,19.1,0,0,0,19.1-19.1h0V127.22H62.7v177.9Z" transform="translate(0 -0.06)"/>
    </g>
  </g>
</svg>
