<svg xmlns="http://www.w3.org/2000/svg" xmlns:xlink="http://www.w3.org/1999/xlink" viewBox="0 0 343.9 403.42">
  <defs>
    <style>
      .a {
        fill: none;
      }

      .b {
        fill: url(#a);
      }

      .c {
        fill: #026b1e;
      }

      .d {
        fill: #027e2d;
      }

      .e {
        fill: #1c8e43;
      }
    </style>
    <linearGradient id="a" data-name="Безымянный градиент" x1="249.97" y1="539.62" x2="249.97" y2="451.14" gradientTransform="translate(-78.12 -486.37)" gradientUnits="userSpaceOnUse">
      <stop offset="0" stop-color="#026b1e"/>
      <stop offset="0.44" stop-color="#02691d"/>
      <stop offset="0.6" stop-color="#02621c"/>
      <stop offset="0.72" stop-color="#025718"/>
      <stop offset="0.81" stop-color="#014614"/>
      <stop offset="0.89" stop-color="#01300d"/>
      <stop offset="0.96" stop-color="#001506"/>
      <stop offset="1"/>
    </linearGradient>
  </defs>
  <title>android</title>
  <g>
    <circle class="a" cx="217.5" cy="69.12" r="12.1"/>
    <path class="a" d="M138.4,69a12.1,12.1,0,1,0-12.1,12.1h0A12.14,12.14,0,0,0,138.4,69Z" transform="translate(0 0.12)"/>
    <path class="b" d="M272.5,81.1c-9.8-19.7-27.1-36-48.9-46.1L243.8,5.7a3.4,3.4,0,0,0-.4-4.9,3.4,3.4,0,0,0-4.9.4,2.09,2.09,0,0,0-.4.6l-21,30.4a125.3,125.3,0,0,0-90.6,0L105.6,1.7A3.47,3.47,0,0,0,99.5,5c0.1,0.2.3,0.4,0.4,0.6l20.2,29.3C98.4,45,81.1,61.3,71.3,81.1a85.88,85.88,0,0,0-8.6,30.2H281A83.68,83.68,0,0,0,272.5,81.1ZM114.2,69a12.1,12.1,0,1,1,12.1,12.1A12.08,12.08,0,0,1,114.2,69h0Zm91.2,0a12.1,12.1,0,1,1,12.1,12.1h0A12.08,12.08,0,0,1,205.4,69h0Z" transform="translate(0 0.12)"/>
    <g>
      <path class="c" d="M321.9,126.5a20.9,20.9,0,0,0-2.5-.1A24.43,24.43,0,0,0,295,150.8h0v98.5a24.4,24.4,0,1,0,48.8,0V150.8A24.49,24.49,0,0,0,321.9,126.5Z" transform="translate(0 0.12)"/>
      <path class="c" d="M24.3,126.4A24.33,24.33,0,0,0,0,150.7H0v98.5a24.4,24.4,0,1,0,48.8,0V150.7a24.5,24.5,0,0,0-24.5-24.3h0Z" transform="translate(0 0.12)"/>
      <path class="c" d="M62.7,305a19.1,19.1,0,0,0,19.1,19.1h22.6v54.7a24.4,24.4,0,0,0,48.8,0V324.1h37.4v54.7a24.4,24.4,0,0,0,48.8,0V324.1H262A19.1,19.1,0,0,0,281.1,305h0V127.1H62.7V305Z" transform="translate(0 0.12)"/>
    </g>
  </g>
  <g>
    <circle class="a" cx="217.5" cy="69.12" r="12.1"/>
    <path class="a" d="M138.4,69a12.1,12.1,0,1,0-12.1,12.1h0A12.14,12.14,0,0,0,138.4,69Z" transform="translate(0 0.12)"/>
    <path class="d" d="M114.2,69a12.1,12.1,0,1,1,12.1,12.1h91.2A12.1,12.1,0,1,1,229.6,69h0a12.08,12.08,0,0,1-12.1,12.1h55c-9.8-19.7-27.1-36-48.9-46.1L243.8,5.7a3.4,3.4,0,0,0-.4-4.9,3.4,3.4,0,0,0-4.9.4,2.09,2.09,0,0,0-.4.6l-21,30.4a125.3,125.3,0,0,0-90.6,0L105.6,1.7A3.47,3.47,0,0,0,99.5,5c0.1,0.2.3,0.4,0.4,0.6l20.2,29.3C98.4,45,81.1,61.3,71.3,81.1h55A12.08,12.08,0,0,1,114.2,69Z" transform="translate(0 0.12)"/>
    <path class="c" d="M104.5,378.9a24.4,24.4,0,0,0,48.8,0V324.2h37.4v54.7a24.4,24.4,0,0,0,48.8,0V324.2h22.6a19.1,19.1,0,0,0,19.1-19.1h0V167.3L104.5,343.9v35h0Z" transform="translate(0 0.12)"/>
    <path class="c" d="M321.9,126.5l-26.8,26.8v95.9a24.4,24.4,0,0,0,48.8,0V150.7A24.55,24.55,0,0,0,321.9,126.5Z" transform="translate(0 0.12)"/>
    <path class="e" d="M281,111.3a83.68,83.68,0,0,0-8.5-30.2H71.3a85.88,85.88,0,0,0-8.6,30.2H281Z" transform="translate(0 0.12)"/>
    <path class="e" d="M24.3,126.4A24.33,24.33,0,0,0,0,150.7H0v98.5a24.4,24.4,0,1,0,48.8,0V150.7a24.5,24.5,0,0,0-24.5-24.3h0Z" transform="translate(0 0.12)"/>
    <path class="e" d="M62.7,127.1V305a19.1,19.1,0,0,0,19.1,19.1h22.6v19.7L281,167.3V127.1H62.7Z" transform="translate(0 0.12)"/>
    <path class="e" d="M319.4,126.4A24.43,24.43,0,0,0,295,150.8h0v2.6l26.8-26.8A9.34,9.34,0,0,0,319.4,126.4Z" transform="translate(0 0.12)"/>
  </g>
</svg>
