<?xml version="1.0" encoding="utf-8"?>
<!-- Generator: Adobe Illustrator 19.2.1, SVG Export Plug-In . SVG Version: 6.00 Build 0)  -->
<svg version="1.1"
	 id="svg5401" xmlns:cc="http://creativecommons.org/ns#" xmlns:dc="http://purl.org/dc/elements/1.1/" xmlns:rdf="http://www.w3.org/1999/02/22-rdf-syntax-ns#" xmlns:svg="http://www.w3.org/2000/svg"
	 xmlns="http://www.w3.org/2000/svg" xmlns:xlink="http://www.w3.org/1999/xlink" x="0px" y="0px" viewBox="0 0 512 512"
	 style="enable-background:new 0 0 512 512;" xml:space="preserve">
<style type="text/css">
	.st0{fill:#546E7A;}
</style>
<path id="_x32__line" class="st0" d="M377.6,162.9l-1.9,81.6c-1.7,72.4-55.2,129.6-119.6,129.6s-117.9-57.2-119.5-129.6l-1.9-81.6
	c-1.8-76.8,52.6-140.7,121.5-140.7S379.4,86.1,377.6,162.9z M255.9,30.6c-64.8,0-116,60.9-114.3,134.2l1.8,77.8
	c1.6,69,52,123.5,112.6,123.5s111-54.5,112.6-123.5l1.8-77.8C371.9,91.6,320.7,30.6,255.9,30.6z"/>
<path id="Rounded_Rectangle_13_copy" class="st0" d="M432.3,512L432.3,512H80l0,0h-6.8l1.7-29.1c2.8-47.1,34-85,73.7-96.6l3.9,5.7
	c-38.3,11.3-68.3,47.7-70.9,92.9l-1.2,20.2h351l-0.7-20.2c-2.6-44.2-31.3-80-68.3-92.1l3.2-5.9c38.7,12.4,68.8,49.7,71.5,95.9
	l1.7,29.1L432.3,512L432.3,512z"/>
<path id="neck_copy_5" class="st0" d="M226,364.4v29.8c0,16.9,13.7,30.6,30.6,30.6s30.6-13.7,30.6-30.6v-31.9
	c1.8-0.5,3.5-1.1,5.3-1.8v33.9c0,20-16.2,36.2-36.2,36.2s-36.2-16.2-36.2-36.2v-31.5C222.2,363.6,224.1,363.8,226,364.4z"/>
<path id="Rounded_Rectangle_14" class="st0" d="M220,421.3c1.9,0,3.4,1.5,3.4,3.4v51.8c0,1.9-1.5,3.4-3.4,3.4s-3.4-1.5-3.4-3.4
	v-51.8C216.5,422.9,218.1,421.3,220,421.3z"/>
<path id="Rounded_Rectangle_15" class="st0" d="M292.1,423.7c2,0,3.7,1.7,3.7,3.7v32.2c0,2-1.7,3.7-3.7,3.7s-3.7-1.7-3.7-3.7v-32.2
	C288.4,425.4,290.1,423.7,292.1,423.7z"/>
<path id="Rounded_Rectangle_16" class="st0" d="M220,476.3c1,0,1.8,0.8,1.8,1.8v13.2c0,1-0.8,1.8-1.8,1.8s-1.8-0.8-1.8-1.8v-13.2
	C218.1,477.1,219,476.3,220,476.3z"/>
<path id="Rounded_Rectangle_16_copy" class="st0" d="M292.4,459.7c1,0,1.8,0.8,1.8,1.8v13.2c0,1-0.8,1.8-1.8,1.8s-1.8-0.8-1.8-1.8
	v-13.2C290.5,460.5,291.3,459.7,292.4,459.7z"/>
<path id="Shape_1_copy_2" class="st0" d="M258.3,430.1c-2.1,2.6-67.4-1-107.8-36.1c-29.3-25.5,14.8-40.2,14.8-40.2l26.3-6l33.9,18
	l-0.4,37.7C239,430.4,261.7,425.9,258.3,430.1z M223.7,404.2l-4.6-43.5l-22.2-8.2l-26.9,6.6c0,0-39,8-14.3,31.2
	c26.7,25,76.2,31.7,81.4,31.2C242.5,420.9,235.5,422.7,223.7,404.2z"/>
<path id="Shape_1_copy_6" class="st0" d="M254.5,430.1c2.1,2.6,67.9,0,108.4-35.3c29.3-25.5-14.8-40.3-14.8-40.3l-32.3-7.4l-28,14.3
	l-0.1,42.9C278.4,425.9,251.2,425.8,254.5,430.1z M289.4,406.5l2.6-45l19-9.5l32.3,7.9c0,0,39.1,8,14.3,31.3
	c-26.8,25.1-76.2,31.8-81.4,31.3C270.8,421.8,277.7,425,289.4,406.5z"/>
<path id="usta" class="st0" d="M313.2,291.2c-9.6,8.3-31.3,16.3-56.5,16.3s-46.9-7.9-56.5-16.3c0,0-1-2.7,0.5-4.1
	c1.5-1.5,3.8-1.1,3.8-1.1c9.6,8.3,27.1,15.2,52.3,15.2c25.3,0,42.7-6.9,52.3-15.2c0,0,2.3-0.9,3.5,0.3
	C314.7,288.4,313.2,291.2,313.2,291.2z"/>
<path id="_x2D_" class="st0" d="M239.3,320.2h33.8v5.3h-33.8V320.2z"/>
<path id="Shape_3" class="st0" d="M136.2,175.9c0,0-25-7.7-24.1,17.9c0,0,3.7,37.2,5.3,40.7c0,0,9.8,21.7,26,22.6c15.8,0.9,0,0,0,0
	l0.2,7c0,0-28.5-3.6-34-36.5l-4.3-29.8c0,0-3.4-39.4,29.3-29.4c31.8,9.8,0,0,0,0L136.2,175.9"/>
<path id="Shape_4" class="st0" d="M128,227.7c0,0-1.4,1.1-2.6,1.1s-2.6-1.1-2.6-1.1l-2.6-26c0,0,3.6-12.8,18.7-6l0.4,7.4
	c0,0-13.2-4.7-13,1.2C126.5,209.8,128,227.7,128,227.7z"/>
<path id="Shape_3_x5F_1" class="st0" d="M375.7,176c0,0,25.1-7.7,24.2,17.9c0,0-3.7,37.2-5.4,40.7c0,0-9.9,21.7-26.1,22.6
	c-15.9,0.9,0,0,0,0l-0.2,7c0,0,28.6-3.6,34.1-36.4l4.4-29.8c0,0,3.4-39.4-29.4-29.4c-32,9.8,0,0,0,0L375.7,176"/>
<path id="Shape_4_x5F_1" class="st0" d="M383.9,227.7c0,0,1.4,1.1,2.6,1.1s2.6-1.1,2.6-1.1l2.6-26c0,0-3.6-12.8-18.7-6l-0.4,7.4
	c0,0,13.3-4.7,13,1.2C385.4,209.9,383.9,227.7,383.9,227.7z"/>
<path id="new_vector_shape_done" class="st0" d="M265.9,225.6c0.6,0,1.2,0,1.8,0c3.8,5.2,5.4,13.2,7.4,20.1c0.6,2.1,0,5.9-0.5,7.4
	c-2,5.5-8.3,5.4-13.5,7.9c-1.4,0.7-2.4,1.8-4.2,2.1c-1.2-1-2.6-1.2-3.2-2.9c-1.4-2,0.4-3.2,1.8-4c2.6-1.4,10.7-2.8,11.6-5.3
	c1.2-1.4,0.4-5.4,0-6.9c-1-3.7-1.5-6.7-2.9-10c-0.9-2.2-2.5-4.5-1.6-7.1C263.6,226.6,265.3,226.2,265.9,225.6z"/>
<path id="Rounded_Rectangle_9" class="st0" d="M189.1,188.3h19c2.6,0,4.8,2.6,4.8,5.7s-2.1,5.7-4.8,5.7h-19c-2.6,0-4.8-2.6-4.8-5.7
	S186.4,188.3,189.1,188.3z"/>
<path id="Rounded_Rectangle_9_copy" class="st0" d="M305.3,187h19c2.6,0,4.8,2.6,4.8,5.7c0,3.2-2.1,5.7-4.8,5.7h-19
	c-2.6,0-4.8-2.6-4.8-5.7C300.6,189.6,302.7,187,305.3,187z"/>
<path id="glasses" class="st0" d="M371.3,169.3c-0.7,6.1-1.3,13.6-2.7,20.3c-3.9,20-21.1,38.5-50.4,40.6s-54.2-12.6-55.7-33
	c-0.2-3.4-0.9-7.3-1.4-11.1c-4.1-2.3-8.4-2.3-12.8,0c-0.5,3.8-1.2,7.8-1.5,11.3c-1.5,20.4-26.5,35.2-55.9,33.1s-46.6-20.7-50.6-40.7
	c-1.3-6.7-2-14.2-2.7-20.3l-4.3-0.3l0.6-8.4l1.1,0.1l26.7,1.9l22.6,1.6l22.6,1.6l35.2,2.5c2.4,0.3,4,1.3,5.1,2.9
	c5.1,2.2,10,2.2,14.7,0c1-1.7,2.7-2.8,5.2-3.1l35.1-2.5l22.5-1.6l22.5-1.6l26.7-1.9l1.1-0.1l0.6,8.4L371.3,169.3z M232.7,178.4
	l-69-5c-9-0.8-12.2,9.4-12.8,17.1c-1.2,16.3,17,30.9,40.6,32.6s43.6-10.1,44.8-26.4C236.8,189,239.3,184.2,232.7,178.4z
	 M358.1,190.3c-0.6-7.7-3.7-17.8-12.7-17l-68.8,5c-6.6,5.7-4.1,10.5-3.6,18.2c1.2,16.2,21.2,28,44.7,26.4
	C341.2,221.1,359.3,206.6,358.1,190.3z"/>
<path id="Shape_7" class="st0" d="M141,209.2c0,0,14.7-64.4,27.5-82s23.9-21.8,29.6-22.4c5.7-0.5,51,12.8,113.1-2.5
	c0,0,24.5-1,34.9,23.6c0,0,21.9,39.2,25.4,78.3h4.2c0,0,9-68.5,5.3-109.3S323.9,34,323.9,34l11.6-8.7c0,0-27.2-8.4-38.1-3.7L306,4.2
	c0,0-54.8,0.1-85.6,24.9l1.1-12.4c0,0-108.7,16.7-85.6,190.1L141,209.2z"/>
</svg>
