<svg xmlns="http://www.w3.org/2000/svg" viewBox="0 0 66.85 56.57">
  <defs>
    <style>
      .a {
        fill: #026b1e;
      }

      .b {
        fill: #027e2d;
      }

      .c {
        fill: #1c8e43;
      }

      .d {
        fill: #229947;
      }
    </style>
  </defs>
  <title>ecommerce</title>
  <g>
    <path class="a" d="M282.43,315a5.14,5.14,0,1,0,5.14-5.14A5.18,5.18,0,0,0,282.43,315Z" transform="translate(-267 -263.57)"/>
    <path class="a" d="M318.43,315a5.14,5.14,0,1,0,5.14-5.14A5.18,5.18,0,0,0,318.43,315Z" transform="translate(-267 -263.57)"/>
    <path class="a" d="M331.28,268.72H283c-0.4-1.93-.48-5.14-3.17-5.14H269.57a2.57,2.57,0,1,0,0,5.14h8.2l2.66,12.39,2,9.1,2.49,11.57c-0.64,1.25-2.45,4.26-2.45,5.5a2.59,2.59,0,0,0,2.57,2.57h41.14a2.56,2.56,0,0,0,1.54-4.61,2.54,2.54,0,0,0-1.54-.53h-37a6.09,6.09,0,0,0,1-2.57,13.34,13.34,0,0,0-.52-2.81l41.94-4.9a2.63,2.63,0,0,0,2.29-2.57V271.29A2.59,2.59,0,0,0,331.28,268.72Zm-2.12,21-40.49,4.85L287,286.89l-2-9.18-1-4.71,7.42,0,14.91,0.06,22.75,0.09v16.5Z" transform="translate(-267 -263.57)"/>
  </g>
  <g>
    <path class="a" d="M282.43,315a5.14,5.14,0,1,0,5.14-5.14A5.18,5.18,0,0,0,282.43,315Z" transform="translate(-267 -263.57)"/>
    <path class="a" d="M318.43,315a5.14,5.14,0,1,0,5.14-5.14A5.18,5.18,0,0,0,318.43,315Z" transform="translate(-267 -263.57)"/>
    <path class="a" d="M287.57,309.86h38.57a2.56,2.56,0,0,0,1.54-4.61l-41.3,4.61h1.19Z" transform="translate(-267 -263.57)"/>
    <path class="b" d="M284.08,273l7.42,0,5.91-4.31H283c-0.4-1.93-.48-5.14-3.17-5.14H269.57a2.57,2.57,0,1,0,0,5.14h8.2l2.66,12.39,4.66-3.4Z" transform="translate(-267 -263.57)"/>
    <polygon class="c" points="15.39 26.64 17.88 38.21 15.39 26.64 15.39 26.64"/>
    <polygon class="a" points="13.43 17.53 15.39 26.64 15.39 26.64 13.43 17.53"/>
    <path class="d" d="M331.28,268.72H297.41L291.5,273l14.91,0.06,22.75,0.09v16.5l-40.49,4.85L287,286.89l-2-9.18-4.66,3.4,2,9.1,2.49,11.57c-0.64,1.25-2.45,4.26-2.45,5.5a2.59,2.59,0,0,0,2.57,2.57h1.38l41.3-4.61a2.54,2.54,0,0,0-1.54-.53h-37a6.09,6.09,0,0,0,1-2.57,13.34,13.34,0,0,0-.52-2.81l41.94-4.9a2.63,2.63,0,0,0,2.29-2.57V271.29A2.59,2.59,0,0,0,331.28,268.72Z" transform="translate(-267 -263.57)"/>
  </g>
</svg>
