<svg xmlns="http://www.w3.org/2000/svg" viewBox="0 0 66.89 56.56">
  <defs>
    <style>
      .a {
        fill: #229947;
      }
    </style>
  </defs>
  <title>ecommerce_s</title>
  <g>
    <path class="a" d="M15.43,51.43a5.14,5.14,0,1,0,5.14-5.14A5.14,5.14,0,0,0,15.43,51.43Z" transform="translate(0 -0.01)"/>
    <path class="a" d="M51.43,51.43a5.14,5.14,0,1,0,5.14-5.14A5.14,5.14,0,0,0,51.43,51.43Z" transform="translate(0 -0.01)"/>
    <path class="a" d="M64.28,5.15H16C15.6,3.22,15.52,0,12.83,0H2.57a2.57,2.57,0,0,0,0,5.14h8.2l2.66,12.39,2,9.1,2.49,11.57c-0.64,1.25-2.45,4.26-2.45,5.5A2.59,2.59,0,0,0,18,46.28H59.18a2.57,2.57,0,0,0,0-5.14h-37a6.09,6.09,0,0,0,1-2.57,13.34,13.34,0,0,0-.52-2.81l41.94-4.9a2.63,2.63,0,0,0,2.29-2.57V7.72a2.59,2.59,0,0,0-2.61-2.57h0Zm-2.12,21L21.67,31,20,23.32l-2-9.18L17,9.43h7.42L39.33,9.49,62.08,9.58v16.5Z" transform="translate(0 -0.01)"/>
  </g>
</svg>
