<svg xmlns="http://www.w3.org/2000/svg" viewBox="0 0 82.28 61.71">
  <defs>
    <style>
      .a {
        fill: #229947;
      }
    </style>
  </defs>
  <title>enterprise_s</title>
  <polygon class="a" points="71.06 59.14 2.57 59.14 2.57 35.02 2.57 0 0 0 0 37.64 0 61.71 71.25 61.71 82.28 61.71 82.28 59.14 71.06 59.14"/>
  <path class="a" d="M34,33.14l8.26,8a1.16,1.16,0,0,0,1.63,0L64.76,20.9l1.62-1.57,4.29,4.17a1.14,1.14,0,0,0,2-.76v-15a1.1,1.1,0,0,0-1.1-1.1H56.07a1.1,1.1,0,0,0-.78,1.89l4.29,4.17-16.46,16-8.26-8a1.16,1.16,0,0,0-1.63,0L12.48,40.85l6.81,6.62Z" transform="translate(0 0)"/>
</svg>
