<svg xmlns="http://www.w3.org/2000/svg" viewBox="0 0 82.28 61.71">
  <defs>
    <style>
      .a {
        fill: #027e2d;
      }

      .b {
        fill: #026b1e;
      }

      .c {
        fill: #047f1b;
      }

      .d {
        fill: #229947;
      }
    </style>
  </defs>
  <title>enterprise</title>
  <polygon class="a" points="71.06 59.14 2.57 59.14 2.57 35.02 2.57 0 0 0 0 37.64 0 61.71 71.25 61.71 82.28 61.71 82.28 59.14 71.06 59.14"/>
  <path class="b" d="M243.9,454.09l8.26,8a1.16,1.16,0,0,0,1.63,0l20.83-20.24,1.62-1.57,4.29,4.17a1.14,1.14,0,0,0,2-.76v-15a1.1,1.1,0,0,0-1.13-1.1H265.93a1.1,1.1,0,0,0-.78,1.89l4.29,4.17-16.46,16-8.26-8a1.16,1.16,0,0,0-1.63,0L222.34,461.8l6.81,6.62Z" transform="translate(-209.86 -420.95)"/>
  <polygon class="a" points="2.57 0 0 0 0 37.64 2.57 35.02 2.57 0"/>
  <path class="c" d="M281.35,427.62h-7.84l1.11,14.25,1.62-1.57,4.29,4.17a1.14,1.14,0,0,0,2-.76v-15A1.1,1.1,0,0,0,281.35,427.62Z" transform="translate(-209.86 -420.95)"/>
  <polygon class="c" points="71.25 61.71 82.28 61.71 82.28 59.14 71.06 59.14 71.25 61.71"/>
  <polygon class="d" points="2.57 59.14 2.57 35.02 0 37.64 0 61.71 71.25 61.71 71.06 59.14 2.57 59.14"/>
  <path class="d" d="M273.52,427.62h-7.59a1.1,1.1,0,0,0-.78,1.89l4.29,4.17-16.46,16-8.26-8a1.16,1.16,0,0,0-1.63,0l-9,8.7L222.34,461.8l6.81,6.62,14.75-14.33,8.26,8a1.16,1.16,0,0,0,1.63,0l12.11-11.77,8.72-8.47Z" transform="translate(-209.86 -420.95)"/>
</svg>
