<?xml version="1.0" encoding="utf-8"?>
<!-- Generator: Adobe Illustrator 19.0.1, SVG Export Plug-In . SVG Version: 6.00 Build 0)  -->
<svg version="1.1" id="Слой_1" xmlns="http://www.w3.org/2000/svg" xmlns:xlink="http://www.w3.org/1999/xlink" x="0px" y="0px"
	 viewBox="-242 366.1 109.2 109.8" style="enable-background:new -242 366.1 109.2 109.8;" xml:space="preserve">
<style type="text/css">
	.st0{fill:#FFFFFF;}
	.st1{fill:none;stroke:#FFFFFF;stroke-width:3;stroke-miterlimit:10;}
</style>
<title>logo-main</title>
<g>
	<path class="st0" d="M-222.6,418.3c0.8-0.1,1.3,2.6,0.5,2.7c-3.3,1.8-5.4,5.2-5.4,9c0,5.6,4.6,10.2,10.2,10.2
		c5.6,0,10.2-4.6,10.2-10.2c0-3.8-2.1-7.2-5.4-9c-0.7-0.1-0.3-2.8,0.5-2.7s16.1-0.6,18.4-2.8c0.5-0.5,1-3.5,1.2-7.7
		c-1.5,0.5-3.1,0.7-4.7,0.7c-9.1,0-16.5-7.4-16.5-16.5s7.4-16.5,16.5-16.5c1.6,0,3.2,0.2,4.8,0.7c-0.3-4.4-1.4-6.8-1.9-7.3
		c-2.2-2.2-44-1.3-45.6,0.4s-3.2,43.8-0.9,46.1S-223.3,417.6-222.6,418.3z"/>
	<path class="st0" d="M-134.8,427.4c-2.3-2.3-17.5-2.3-18.2-3c-0.8,0.1-1.3-2.6-0.5-2.7c3.3-1.8,5.4-5.2,5.4-9
		c0-5.6-4.6-10.2-10.2-10.2c-5.6,0-10.2,4.6-10.2,10.2c0,3.8,2.1,7.2,5.4,9c0.7,0.1,0.3,2.8-0.5,2.7s-16.1,0.6-18.4,2.8
		c-0.5,0.5-1,3.5-1.2,7.7c1.5-0.5,3.1-0.7,4.7-0.7c9.1,0,16.5,7.4,16.5,16.5s-7.4,16.5-16.5,16.5c-1.6,0-3.2-0.2-4.8-0.7
		c0.3,4.4,1.4,6.8,1.9,7.3c2.2,2.2,44,1.3,45.6-0.4S-132.5,429.8-134.8,427.4z"/>
	<path class="st1" d="M-207,392.2c0,5.6,4.6,10.2,10.2,10.2c3.8,0,7.2-2.1,9-5.4c0.1-0.7,2.8-0.3,2.7,0.5s0.6,16.1,2.8,18.4
		c0.5,0.5,3.5,1,7.7,1.2c-0.5-1.5-0.7-3.1-0.7-4.7c0-9.1,7.4-16.5,16.5-16.5s16.5,7.4,16.5,16.5c0,1.6-0.2,3.2-0.7,4.8
		c4.3-0.3,6.8-1.4,7.3-1.9c2.2-2.2,1.3-44-0.4-45.6s-43.8-3.2-46.1-0.9s-2.3,17.5-3,18.2c0.1,0.8-2.6,1.3-2.7,0.5
		c-1.8-3.3-5.2-5.4-9-5.4C-202.5,382-207,386.6-207,392.2z"/>
	<path class="st0" d="M-169.3,451.2c0-5.6-4.6-10.2-10.2-10.2c-3.8,0-7.2,2.1-9,5.4c-0.1,0.7-2.8,0.3-2.7-0.5s-0.6-16.1-2.8-18.4
		c-0.5-0.5-3.5-1-7.7-1.2c0.5,1.5,0.7,3.1,0.7,4.7c0,9.1-7.4,16.5-16.5,16.5c-9.1,0-16.5-7.4-16.5-16.5c0-1.6,0.2-3.2,0.7-4.8
		c-4.3,0.3-6.8,1.4-7.3,1.9c-2.2,2.2-1.3,44,0.4,45.6s43.8,3.2,46.1,0.9s2.3-17.5,3-18.2c-0.1-0.8,2.6-1.3,2.7-0.5
		c1.8,3.3,5.2,5.4,9,5.4C-173.8,461.4-169.3,456.9-169.3,451.2z"/>
</g>
</svg>
