<?xml version="1.0" encoding="utf-8"?>
<!-- Generator: Adobe Illustrator 19.0.1, SVG Export Plug-In . SVG Version: 6.00 Build 0)  -->
<svg version="1.1"
	 id="svg4823" xmlns:cc="http://creativecommons.org/ns#" xmlns:dc="http://purl.org/dc/elements/1.1/" xmlns:rdf="http://www.w3.org/1999/02/22-rdf-syntax-ns#" xmlns:svg="http://www.w3.org/2000/svg"
	 xmlns="http://www.w3.org/2000/svg" xmlns:xlink="http://www.w3.org/1999/xlink" x="0px" y="0px" viewBox="-49 141 512 512"
	 style="enable-background:new -49 141 512 512;" xml:space="preserve">
<style type="text/css">
	.st0{opacity:0.6;fill:#3B434F;}
	.st1{fill:#3B434F;}
</style>
<path id="fill" class="st0" d="M301.6,374.8c0,0,39.4-103.3-81.9-126.9c0,0-25.4-1.4-45.2-25c0,0-14.2,19.4-6,34.3
	c0,0-10.4,9.1-38.4,1.9c0,0-4.2,9-0.9,19.4c0,0-35.2,15.2-18.4,83.2c0.2,0.7,0.3,1.3,0.5,2c0,0,15-60.2,25.6-61.1
	c0,0,56.8,32.6,104.9-2.8c0,0,23.8,31.7,52.9,33.3C294.8,333.1,300,353.6,301.6,374.8z"/>
<path id="Rounded_Rectangle_13_copy_3" class="st1" d="M349.3,646.6L349.3,646.6H64.7l0,0h-5.5l1.4-23.5c2.7-45.9,38.9-81,80.3-81
	h37.5v4.7h-35c-39.9,0-74.8,33.7-77.4,78l-1,16.3h283.4l-0.5-16.3c-2.6-44.2-37.5-78-77.4-78h-35.4v-4.7h37.7
	c41.4,0,77.6,35.1,80.3,81l1.4,23.5H349.3z"/>
<path id="neck_copy_7" class="st1" d="M181.4,525.1v26.3c0,13.7,11.1,24.7,24.7,24.7s24.7-11.1,24.7-24.7v-25.8
	c1.4-0.4,2.9-0.9,4.3-1.4v27.4c0,16.1-13.1,29.2-29.2,29.2s-29.2-13.1-29.2-29.2v-28.2C178.3,524.1,179.8,524.6,181.4,525.1z"/>
<path id="Rounded_Rectangle_2" class="st1" d="M282.7,598.5l-12.1,25.2c-0.6,1.3-2.1,1.8-3.4,1.2c-1.3-0.6-1.8-2.1-1.2-3.4
	l11.7-24.3l-9.1-15.8c-0.7-1.2-0.3-2.8,0.9-3.5c1.2-0.7,2.8-0.3,3.5,0.9l9.8,17C283.3,596.7,283.2,597.7,282.7,598.5z"/>
<path id="Rounded_Rectangle_2_copy_3" class="st1" d="M129.4,598.5l12.2,25.3c0.6,1.3,2.2,1.8,3.4,1.2c1.3-0.6,1.8-2.1,1.2-3.4
	l-11.7-24.4l9.2-15.8c0.7-1.2,0.3-2.8-0.9-3.5c-1.2-0.7-2.8-0.3-3.5,0.9l-9.9,17C128.8,596.7,128.8,597.7,129.4,598.5z"/>
<path id="Rectangle_24" class="st1" d="M176.7,541.2h4.7v103.7h-4.7V541.2z"/>
<path id="Rectangle_24_copy" class="st1" d="M230.9,542.1h4.7v103.7h-4.7V542.1z"/>
<path id="Shape_34" class="st1" d="M194,592l12-13l13,13l-7,7l11,45h-34l12-45L194,592z"/>
<path id="Rectangle_24_copy_4" class="st1" d="M220.7,644.7l-12.1-45.1l2.5-0.8l1.7-1.8l12.8,47.7L220.7,644.7z M186.6,644.2
	l12.6-46.9l0.8,0.7l2.6,1.7l0.8,0.1l-12,44.5L186.6,644.2z"/>
<path id="Ellipse_6" class="st1" d="M235.1,604.8l-3.3,3.3l-12.9-12.9c-2.5,4-6.9,6.6-11.9,6.6c-5.2,0-9.8-2.9-12.2-7.1l-13.5,13.5
	l-3.3-3.3l26.5-26.5l2.1-1.9l2.1,1.9L235.1,604.8z M197.4,592.1c1.7,3.5,5.3,5.9,9.4,5.9c4,0,7.5-2.3,9.3-5.6l-9.4-9.4L197.4,592.1z
	"/>
<path id="usta" class="st1" d="M253.1,468.3c-7.8,6.7-25.3,13.1-45.7,13.1c-20.4,0-37.9-6.4-45.7-13.1c0,0-0.8-2.2,0.4-3.3
	c1.2-1.2,3-0.9,3-0.9c7.7,6.7,21.9,12.3,42.2,12.3c20.4,0,34.5-5.6,42.2-12.3c0,0,1.9-0.7,2.8,0.2
	C254.3,466,253.1,468.3,253.1,468.3z"/>
<path id="_x2D_" class="st1" d="M193.3,491.7h27.3v4.3h-27.3V491.7z"/>
<path id="Shape_3" class="st1" d="M110.1,375.2c0,0-20.2-6.3-19.5,14.5c0,0,3,30.1,4.3,32.8c0,0,7.9,17.5,21,18.3c12.8,0.8,0,0,0,0
	l0.2,5.6c0,0-23-2.9-27.4-29.4L85.2,393c0,0-2.7-31.8,23.7-23.7c25.7,7.9,0,0,0,0L110.1,375.2"/>
<path id="Shape_4" class="st1" d="M103.5,417c0,0-1.1,0.9-2.1,0.9s-2.1-0.9-2.1-0.9l-2.1-21c0,0,2.9-10.3,15.1-4.9l0.3,6
	c0,0-10.7-3.8-10.5,0.9C102.3,402.6,103.5,417,103.5,417z"/>
<path id="Shape_3_x5F_1" class="st1" d="M303.5,375.3c0,0,20.3-6.2,19.6,14.5c0,0-3,30.1-4.3,32.8c0,0-8,17.5-21.1,18.3
	c-12.8,0.8,0,0,0,0l-0.2,5.6c0,0,23.1-2.9,27.5-29.4l3.5-24c0,0,2.7-31.8-23.8-23.7c-25.8,7.9,0,0,0,0L303.5,375.3"/>
<path id="Shape_4_x5F_1" class="st1" d="M310.2,417c0,0,1.1,0.9,2.1,0.9s2.1-0.9,2.1-0.9l2.1-21c0,0-2.9-10.3-15.1-4.9l-0.3,6
	c0,0,10.7-3.8,10.5,0.9C311.4,402.6,310.2,417,310.2,417z"/>
<path id="R_copy" class="st1" d="M234.3,367.4c0,0,25.5-14.6,43.8,1.5l4.8,0.7c0,0-6.2-22.5-51.2-7.9l1.3,4.2 M234,366
	c0,0,26-14.9,43.1,3.9l8.8-0.3c0,0-11-24-56.2-8.9l4.3,6.2"/>
<path id="R_copy_3" class="st1" d="M179.4,367.5c0,0-25.5-14.5-43.6,1.5l-4.8,0.7c0,0,6.2-22.3,51-7.8l-1.2,4.2 M179.8,366.1
	c0,0-25.9-14.8-43,3.9l-8.8-0.2c0,0,11-23.8,56-8.8l-4.2,6.1"/>
<path id="line" class="st1" d="M304.3,375.7c-1.2,3.2-5.1,2.1-5.1,2.1c-1.6-21.2-6.4-41.8-6.4-41.8c-29.5-3.7-51.6-32-51.6-32
	c-47.8,32.9-104.1,1.3-104.1,1.3c-11.3,9.4-22.6,58.9-22.6,58.9c-0.2-0.7-5.8,0.7-6,0c-16.8-68,17.5-87,17.5-87
	c-3.4-10.4,2.1-21.3,2.1-21.3c28,7.2,36.7,0.9,36.7,0.9c-7.4-18.5,9-37.5,9-37.5c19.8,23.6,46.9,26,46.9,26
	C332.2,267.4,312.2,354.2,304.3,375.7z M218.1,250.6c0,0-22.8-1.2-43.1-22.6c0,0-11.6,15.4-3.4,30.3c0,0-11.7,11.5-39.7,4.3
	c0,0-2.2,5.8,0,16.6c0,0-31.4,16.2-20.5,71.3c0.1,0.7-0.2-0.2,0,0.4c0,0,13.1-50.8,25.2-51.2c0,0,58.9,33.3,106.2-3.8
	c0,0,25.1,33.3,54.2,35c0,0,2.5,7.1,5.5,28.2C302.6,359,328.1,271.6,218.1,250.6z"/>
<path id="new_vector_shape_done" class="st1" d="M182.1,245.9c0.8,0,0.8,0.5,1,1.1c0.3,0.8,0.6,1.7,1,2.5c0.6,1.2,1.2,2.4,1.9,3.5
	c0.6,0.9,1.2,1.8,1.9,2.7c0.4,0.5,0.8,0.9,1.2,1.4c0.2,0.2,0.4,0.4,0.5,0.6c0.1,0,0.1,0.1,0.2,0.1c0.2,0.3,0.4,0.5,0.6,0.7
	c0.2,0.2,0.4,0.4,0.6,0.6c0.3,0.3,0.6,0.7,1,1c0.1,0.1,0.2,0.2,0.2,0.3c0.3,0.2,0.5,0.5,0.8,0.7c0,0.1,0.1,0.1,0.1,0.2
	c0.4,0.3,0.8,0.7,1.2,1c0.7,0.5,1.4,1.1,2.1,1.6c0.5,0.3,0.9,0.7,1.4,1c0.8,0.6,1.7,1.1,2.6,1.7c0.5,0.3,1.1,0.6,1.6,0.9
	c1.5,0.9,3.2,1.8,4.9,2.6c0.5,0.3,1.1,0.5,1.6,0.7c0.3,0.2,0.7,0.3,1.1,0.5c0.2,0.1,0.4,0.1,0.6,0.2c0.4,0.2,0.9,0.4,1.3,0.6
	c0.4,0.2,0.8,0.3,1.2,0.4c0.4,0.2,0.9,0.4,1.3,0.5c0.8,0.3,1.5,0.5,2.3,0.8c0.8,0.3,1.6,0.5,2.3,0.8c1.5,0.5,3.2,0.9,4.8,1.4
	c0.5,0.1,1,0.2,1.5,0.3c0.2,0.1,0.5,0.1,0.7,0.2c0.1,0,0.2,0.1,0.3,0.2c0.1,0.1,0.2,0.3,0.3,0.4c0.1,0.2,0.3,0.4,0.4,0.6
	c0.1,0.2,0.2,0.6,0.2,0.9c0.1,0.2,0,0.5-0.1,0.7c0,0.1,0,0.2-0.1,0.4c-0.1,0.3-0.3,0.7-0.5,0.9c-0.2,0.3-0.7,0.3-1.1,0.2
	c-0.7-0.2-1.4-0.3-2.1-0.4c-0.1,0-0.3,0-0.4-0.1c-0.8-0.2-1.6-0.3-2.4-0.6c-0.2,0-0.3,0-0.5-0.1c-0.6-0.2-1.2-0.3-1.8-0.5
	c-1.5-0.5-3.1-0.9-4.5-1.4c-0.3-0.1-0.7-0.2-1-0.3c-2.4-0.9-4.8-1.8-6.9-2.9c-0.6-0.3-1.1-0.5-1.7-0.8c-1.6-0.9-3.1-1.7-4.6-2.7
	c-0.2-0.1-0.4-0.3-0.6-0.4c-0.9-0.6-1.7-1.2-2.6-1.8c-0.9-0.6-1.6-1.3-2.4-2c-0.2-0.1-0.3-0.3-0.5-0.4c-0.1-0.1-0.1-0.1-0.2-0.2
	c-0.2-0.1-0.3-0.3-0.5-0.5c-0.5-0.3-0.8-0.8-1.2-1.2c-0.4-0.4-0.8-0.7-1.1-1.2c-0.1-0.1-0.1-0.1-0.2-0.2c-0.2-0.3-0.5-0.5-0.7-0.8
	c-0.4-0.5-0.8-0.9-1.2-1.4c-0.4-0.6-0.9-1.2-1.3-1.8c-0.4-0.6-0.8-1.2-1.2-1.9c-1.1-1.7-2-3.6-2.8-5.7c-0.3-0.7-0.5-1.5-0.8-2.3
	c-0.2-0.5-0.3-1.1-0.4-1.6c0-0.1,0-0.3-0.1-0.4c-0.1-0.3-0.2-0.7-0.1-1c0-0.1,0.3-0.3,0.4-0.4C181.9,246,182,246,182.1,245.9z
	 M174.3,269.6c0.6,0,0.8,0.4,1.1,0.7c0.3,0.3,0.6,0.6,0.9,0.9c0.2,0.2,0.4,0.4,0.6,0.6c0.1,0.2,0.3,0.3,0.5,0.5
	c0.2,0.2,0.3,0.4,0.5,0.5c0.2,0.2,0.4,0.4,0.6,0.6c0.2,0.1,0.3,0.3,0.5,0.5c0.6,0.4,1.1,1,1.7,1.4c0.6,0.5,1.2,1,1.9,1.4
	c0.8,0.6,1.7,1.2,2.5,1.8c0.4,0.3,0.9,0.5,1.3,0.8c0.3,0.2,0.7,0.5,1.1,0.7c1.5,0.8,3,1.6,4.5,2.4c1.2,0.6,2.5,1.1,3.8,1.7
	c0.4,0.2,0.8,0.3,1.2,0.4c0.9,0.3,1.9,0.7,2.8,1c0.9,0.3,1.8,0.6,2.7,0.8c0.1,0,0.3,0,0.4,0.1c0.5,0.2,1,0.3,1.5,0.4
	c0.2,0.1,0.5,0.1,0.7,0.2c0.5,0.2,1.2,0.8,1.3,1.3c0.3,0.9,0,1.9-0.4,2.5c-0.1,0.2-0.3,0.5-0.5,0.5c-0.3,0.1-0.7,0-1-0.1
	c-0.4-0.1-0.8-0.1-1.2-0.3c-0.7-0.2-1.5-0.3-2.2-0.6c-1.5-0.5-3.1-0.9-4.5-1.4c-3.4-1.3-6.5-2.8-9.4-4.6c-1.2-0.7-2.3-1.6-3.4-2.4
	c-0.4-0.3-0.8-0.7-1.2-0.9c-0.5-0.4-1-0.9-1.5-1.3c-0.1-0.1-0.1-0.1-0.2-0.2c-0.1-0.1-0.2-0.2-0.3-0.3c-0.1-0.1-0.2-0.2-0.3-0.3
	c-0.2-0.2-0.4-0.3-0.5-0.5c-0.2-0.2-0.4-0.3-0.5-0.5c-0.1-0.1-0.2-0.2-0.3-0.3c-0.4-0.5-0.9-0.9-1.3-1.4c-0.1-0.1-0.2-0.2-0.3-0.3
	c-0.4-0.5-0.8-1-1.1-1.5c-0.4-0.6-0.8-1.2-1.2-1.7c-0.1-0.2-0.3-0.5-0.4-0.7c-0.2-0.3-0.3-0.5-0.4-0.8c-0.1-0.2-0.2-0.3-0.3-0.5
	c-0.1-0.2-0.1-0.6,0-0.7c0.1-0.1,0.2-0.3,0.4-0.3C174.2,269.6,174.3,269.6,174.3,269.6z M163.8,281c0.6,0,0.8,0.5,1.1,0.8
	c0.4,0.6,0.9,1.2,1.4,1.7c0.4,0.5,0.8,0.9,1.2,1.3c0.1,0.1,0.3,0.3,0.4,0.4c0.2,0.3,0.5,0.6,0.8,0.8c0.1,0.1,0.1,0.1,0.2,0.2
	c0.1,0.1,0.3,0.3,0.4,0.4c0.1,0.1,0.1,0.1,0.2,0.2c0.4,0.3,0.6,0.6,1,0.9c0.8,0.6,1.6,1.3,2.5,1.9c1.9,1.3,3.9,2.4,6,3.5
	c0.7,0.3,1.4,0.6,2.1,0.9c0.3,0.1,0.6,0.2,0.9,0.3c0.8,0.4,1.7,0.7,2.6,1c1.2,0.4,2.4,0.7,3.7,1.1c0.4,0.1,0.9,0.2,1.3,0.3
	c0.4,0.1,0.7,0.1,1.1,0.3c0.7,0.2,1.6,0.3,2.3,0.5c0.4,0.1,0.9,0.1,1.3,0.3c0.5,0.1,1,0.1,1.5,0.3c0.1,0,0.2,0,0.3,0
	c0.5,0.1,1,0.1,1.5,0.3c0.2,0,0.4,0,0.6,0.1c0.7,0.2,1.5,0.1,2.2,0.3c0.2,0,0.4,0,0.6,0.1c0.1,0,0.1,0,0.2,0c0.2,0.1,0.5,0,0.8,0.1
	c0.1,0,0.1,0,0.2,0c0.4,0.1,0.9,0,1.3,0.1c0.1,0,0.2,0,0.3,0c0.5,0.1,1.1,0,1.6,0.1c0.2,0,0.4,0,0.6,0c0.1,0,0.3,0,0.4,0
	c0.4,0.1,0.8,0,1.2,0.1c0.2,0,0.5,0,0.7,0c0.2,0,0.4,0,0.5,0c0.4,0,0.8,0,1.2,0c1,0,1.9,0,2.9,0c0.4,0,0.9-0.1,1.3,0
	c0.2,0.1,0.4,0.3,0.6,0.4c0.4,0.3,0.7,0.7,0.9,1.1c0.1,0.1,0,0.3,0.1,0.4c0.1,0.3,0.2,0.6,0.1,1c-0.1,0.2-0.1,0.5-0.2,0.7
	c-0.1,0.3-0.4,0.4-0.8,0.5c-0.1,0-0.3,0-0.4,0c-0.6,0.1-1.3,0-1.9,0.1c-0.1,0-0.3,0-0.4,0c-0.2,0-0.4,0-0.7,0c-0.2,0-0.5,0-0.7,0
	c-0.2,0-0.4,0-0.7,0c-0.1,0-0.2,0-0.3,0c-0.2,0-0.5,0-0.7,0c-0.3,0-0.6,0-0.9,0c-0.3,0.1-0.7,0-1,0c-0.3,0-0.6,0-0.8,0
	c-0.2,0-0.4,0-0.5,0c-0.4,0-0.7,0-1.1,0c-0.2,0-0.4,0-0.5,0c-0.3-0.1-0.7,0-1-0.1c-0.1,0-0.2,0-0.4,0c-0.2,0-0.5,0-0.7-0.1
	c-0.1,0-0.2,0-0.3,0c-0.2,0-0.4,0-0.6-0.1c-0.1,0-0.2,0-0.3,0c-0.6-0.1-1.3-0.1-1.8-0.2c-0.2,0-0.3,0-0.5,0
	c-0.7-0.2-1.6-0.1-2.3-0.3c-0.2,0-0.4,0-0.6-0.1c-0.7-0.2-1.4-0.2-2.1-0.4c-0.1,0-0.2,0-0.3,0c-0.3-0.1-0.7-0.1-1-0.2
	c-0.1,0-0.3,0-0.4-0.1c-1.1-0.3-2.2-0.5-3.2-0.8c-1.9-0.6-3.7-1.1-5.4-1.8c-0.4-0.2-0.8-0.3-1.1-0.4c-0.7-0.3-1.3-0.6-2-0.9
	c-1-0.5-2-1.1-3-1.6c-0.7-0.4-1.4-0.9-2-1.3c-0.5-0.4-1.1-0.7-1.6-1.1c-0.5-0.4-1-0.8-1.5-1.1c-0.5-0.4-1-0.9-1.5-1.2
	c-0.2-0.1-0.4-0.4-0.6-0.5c-0.5-0.4-0.9-0.8-1.3-1.3c-1.8-1.8-3.3-3.9-4.7-6.1c-0.3-0.5-0.5-1-0.8-1.6c-0.1-0.3-0.3-0.6-0.1-0.9
	c0-0.1,0.3-0.3,0.4-0.4C163.6,281.1,163.7,281.1,163.8,281z M268.1,296.6c0.6,0,0.8,0.4,1,0.7c0.2,0.3,0.5,0.6,0.8,1
	c0.5,0.7,1.2,1.3,1.7,2c0.2,0.2,0.4,0.4,0.6,0.7c0.1,0.1,0.1,0.1,0.2,0.2c0.3,0.3,0.6,0.6,0.9,0.9c0.3,0.3,0.5,0.5,0.8,0.8
	c0.4,0.3,0.7,0.7,1.1,1c0.2,0.2,0.4,0.4,0.6,0.6c0.7,0.6,1.4,1.2,2.2,1.8c1.1,0.8,2.3,1.7,3.5,2.5c1.8,1.2,3.7,2.2,5.6,3.3
	c1.1,0.6,2.2,1.1,3.3,1.6c0.4,0.2,0.8,0.3,1.2,0.5c0.1,0.1,0.3,0.1,0.4,0.2c0.6,0.3,1.3,0.5,1.9,0.8c0.2,0.1,0.3,0.1,0.5,0.2
	c0.6,0.2,1.3,0.5,1.9,0.7c0.4,0.1,0.8,0.2,1.1,0.4c0.8,0.5,1.6,1.4,1.2,2.7c-0.1,0.5-0.4,0.8-0.7,1.2c-0.2,0.2-0.4,0.3-0.7,0.4
	c-0.1,0-0.4-0.1-0.5-0.1c-0.4-0.2-0.9-0.2-1.3-0.4c-2.3-0.8-4.4-1.5-6.5-2.5c-3.4-1.5-6.4-3.4-9.2-5.4c-0.8-0.6-1.6-1.3-2.4-1.9
	c-0.2-0.2-0.4-0.4-0.7-0.6c0-0.1-0.1-0.1-0.1-0.2c-0.3-0.2-0.6-0.5-0.9-0.8c-0.1-0.1-0.3-0.3-0.4-0.4c-0.2-0.1-0.3-0.3-0.4-0.4
	c-0.1-0.1-0.3-0.3-0.4-0.4c-0.1-0.1-0.2-0.2-0.3-0.3c-0.2-0.2-0.4-0.4-0.5-0.6c-0.1-0.1-0.2-0.2-0.3-0.3c-0.2-0.3-0.5-0.5-0.7-0.8
	c-0.5-0.7-1.1-1.3-1.6-2c-0.5-0.6-1-1.3-1.4-2c-0.5-0.9-1-1.8-1.5-2.7c-0.2-0.4-0.5-0.9-0.6-1.4c-0.1-0.2-0.1-0.5,0-0.7
	c0.1-0.1,0.2-0.3,0.4-0.3C267.9,296.6,268,296.6,268.1,296.6z"/>
<path id="new_vector_shape_done_1" class="st1" d="M214.9,415.3c0.5,0,1,0,1.5,0c3.1,4.2,4.3,10.6,6,16.2c0.5,1.7,0,4.8-0.4,6
	c-1.6,4.5-6.7,4.4-10.9,6.4c-1.1,0.5-2,1.5-3.4,1.7c-0.9-0.8-2.1-1-2.6-2.3c-1.2-1.6,0.3-2.6,1.5-3.2c2.1-1.1,8.6-2.2,9.4-4.3
	c1-1.1,0.3-4.4,0-5.5c-0.8-3-1.2-5.4-2.3-8.1c-0.7-1.8-2.1-3.6-1.3-5.8C213,416.1,214.4,415.8,214.9,415.3z"/>
<path id="oko" class="st1" d="M160.1,379.1c4.7,0,8.5,3.8,8.5,8.5s-3.8,8.5-8.5,8.5s-8.5-3.8-8.5-8.5S155.4,379.1,160.1,379.1z"/>
<path id="oko_1" class="st1" d="M254.8,379.1c4.7,0,8.5,3.8,8.5,8.5s-3.8,8.5-8.5,8.5c-4.7,0-8.5-3.8-8.5-8.5
	S250.1,379.1,254.8,379.1z"/>
<g>
	<path class="st1" d="M299.1,362.7c0,1.2,0,2.4,0,3.6l-1.4,62.8c-1.3,55.7-42,99.7-90.9,99.7s-89.6-44-90.9-99.7l-1.4-62.8
		c0-2.1,0-4.2,0-6.2l-5.6,0c0,1.6,0,3.1,0,4.7l1.5,65.9C111.8,489,155,535.2,207,535.2s95.2-46.2,96.6-104.6l1.5-65.9
		c0-1.2,0-2.5,0-3.7L299.1,362.7z"/>
</g>
</svg>
