<?xml version="1.0" encoding="utf-8"?>
<!-- Generator: Adobe Illustrator 19.2.1, SVG Export Plug-In . SVG Version: 6.00 Build 0)  -->
<svg version="1.1"
	 id="svg4823" xmlns:cc="http://creativecommons.org/ns#" xmlns:dc="http://purl.org/dc/elements/1.1/" xmlns:rdf="http://www.w3.org/1999/02/22-rdf-syntax-ns#" xmlns:svg="http://www.w3.org/2000/svg"
	 xmlns="http://www.w3.org/2000/svg" xmlns:xlink="http://www.w3.org/1999/xlink" x="0px" y="0px" viewBox="0 0 512 512"
	 style="enable-background:new 0 0 512 512;" xml:space="preserve">
<style type="text/css">
	.st0{opacity:0.6;fill:#546E7A;enable-background:new    ;}
	.st1{fill:#546E7A;}
</style>
<path id="fill" class="st0" d="M370,190.7c0,0,46.6-122.2-96.9-150.1c0,0-30-1.6-53.5-29.6c0,0-16.8,23-7.1,40.5
	c0,0-12.3,10.8-45.4,2.2c0,0-5,10.7-1,23c0,0-41.6,18-21.8,98.4c0.2,0.8,0.4,1.5,0.6,2.3c0,0,17.8-71.1,30.3-72.3
	c0,0,67.2,38.6,124.1-3.3c0,0,28.1,37.5,62.6,39.4C361.9,141.4,368.1,165.6,370,190.7z"/>
<path id="Rounded_Rectangle_13_copy_3" class="st1" d="M426.4,512.1L426.4,512.1H89.9l0,0h-6.5l1.6-27.8c3.2-54.3,46-95.8,95-95.8
	h44.3v5.6h-41.4c-47.2,0-88.5,39.9-91.5,92.2l-1.1,19.3h335.2l-0.6-19.3c-3.1-52.3-44.3-92.2-91.5-92.2h-41.9v-5.6h44.6
	c49,0,91.8,41.5,95,95.8l1.6,27.8H426.4z"/>
<path id="neck_copy_7" class="st1" d="M227.8,368.5v31.1c0,16.1,13.1,29.2,29.3,29.2c16.2,0,29.3-13.1,29.3-29.2v-30.5
	c1.7-0.5,3.4-1.1,5-1.7v32.4c0,19.1-15.5,34.6-34.6,34.6s-34.6-15.5-34.6-34.6v-33.3C224.1,367.2,226,367.9,227.8,368.5z"/>
<path id="Rounded_Rectangle_2" class="st1" d="M347.7,455.2L333.4,485c-0.7,1.5-2.5,2.1-4,1.4c-1.5-0.7-2.1-2.5-1.4-4l13.8-28.8
	L331,434.9c-0.8-1.4-0.3-3.3,1.1-4.1s3.3-0.3,4.1,1.1l11.6,20.1C348.4,453,348.3,454.3,347.7,455.2z"/>
<path id="Rounded_Rectangle_2_copy_3" class="st1" d="M166.3,455.2l14.4,29.9c0.7,1.5,2.5,2.2,4.1,1.4c1.5-0.7,2.2-2.5,1.4-4.1
	l-13.9-28.9l10.8-18.7c0.8-1.5,0.3-3.3-1.1-4.1c-1.5-0.8-3.3-0.3-4.2,1.1L166.1,452C165.6,453.1,165.7,454.3,166.3,455.2z"/>
<path id="Rectangle_24" class="st1" d="M222.3,387.5h5.6v122.6h-5.6V387.5z"/>
<path id="Rectangle_24_copy" class="st1" d="M286.4,388.5h5.6v122.6h-5.6V388.5z"/>
<path id="Shape_34" class="st1" d="M242.7,447.5l14.2-15.4l15.4,15.4l-8.3,8.3l13,53.2h-40.2l14.2-53.2L242.7,447.5z"/>
<path id="Rectangle_24_copy_4" class="st1" d="M274.3,509.8L260,456.4l3-0.9l2-2.1l15.1,56.5L274.3,509.8z M234,509.2l14.9-55.5
	l1,0.8l3,2l1,0.1l-14.2,52.7L234,509.2z"/>
<path id="Ellipse_6" class="st1" d="M291.4,462.7l-3.9,3.9l-15.3-15.3c-2.9,4.7-8.1,7.8-14.1,7.8c-6.2,0-11.6-3.4-14.4-8.4
	l-15.9,15.9l-3.9-3.9l31.4-31.4l2.5-2.3l2.5,2.3L291.4,462.7z M246.8,447.7c2,4.1,6.2,6.9,11.1,6.9c4.8,0,8.9-2.7,10.9-6.6
	l-11.2-11.2L246.8,447.7z"/>
<path id="usta" class="st1" d="M312.6,301.3c-9.2,8-29.9,15.5-54,15.5s-44.8-7.6-54-15.5c0,0-0.9-2.6,0.4-4c1.4-1.4,3.6-1.1,3.6-1.1
	c9.2,8,25.8,14.5,50,14.5c24.1,0,40.8-6.6,50-14.5c0,0,2.2-0.8,3.3,0.3C314,298.6,312.6,301.3,312.6,301.3z"/>
<path id="_x2D_" class="st1" d="M242,328.9h32.3v5H242V328.9z"/>
<path id="Shape_3" class="st1" d="M143.6,191.2c0,0-23.9-7.4-23,17.1c0,0,3.6,35.6,5.1,38.8c0,0,9.4,20.7,24.8,21.6
	c15.1,0.9,0,0,0,0l0.2,6.7c0,0-27.2-3.5-32.4-34.8l-4.1-28.5c0,0-3.2-37.7,28-28.1c30.4,9.3,0,0,0,0L143.6,191.2"/>
<path id="Shape_4" class="st1" d="M135.7,240.6c0,0-1.3,1-2.5,1c-1.1,0-2.5-1-2.5-1l-2.5-24.8c0,0,3.4-12.2,17.8-5.8l0.3,7.1
	c0,0-12.6-4.5-12.4,1.1C134.3,223.6,135.7,240.6,135.7,240.6z"/>
<path id="Shape_3_x5F_1" class="st1" d="M372.2,191.2c0,0,24-7.4,23.1,17.1c0,0-3.6,35.5-5.1,38.8c0,0-9.4,20.7-24.9,21.6
	c-15.2,0.9,0,0,0,0l-0.2,6.7c0,0,27.3-3.5,32.6-34.8l4.2-28.4c0,0,3.2-37.6-28.1-28.1c-30.5,9.3,0,0,0,0L372.2,191.2"/>
<path id="Shape_4_x5F_1" class="st1" d="M380.1,240.6c0,0,1.3,1,2.5,1s2.5-1,2.5-1l2.5-24.8c0,0-3.4-12.2-17.9-5.8l-0.3,7.1
	c0,0,12.7-4.5,12.4,1.1C381.5,223.6,380.1,240.6,380.1,240.6z"/>
<path id="R_copy" class="st1" d="M290.4,182c0,0,30.2-17.3,51.8,1.8l5.7,0.9c0,0-7.3-26.6-60.5-9.3l1.5,5 M290,180.3
	c0,0,30.7-17.7,51,4.6l10.4-0.3c0,0-13-28.4-66.5-10.5l5,7.3"/>
<path id="R_copy_3" class="st1" d="M225.5,182.1c0,0-30.1-17.1-51.6,1.7l-5.7,0.9c0,0,7.3-26.4,60.3-9.2l-1.5,4.9 M225.9,180.4
	c0,0-30.6-17.5-50.8,4.6l-10.4-0.3c0,0,13-28.2,66.2-10.4l-5,7.3"/>
<path id="line" class="st1" d="M373.2,191.7c-1.4,3.8-6.1,2.5-6.1,2.5c-1.8-25.1-7.6-49.4-7.6-49.4c-34.9-4.4-61.1-37.8-61.1-37.8
	c-56.6,38.9-123.1,1.5-123.1,1.5c-13.4,11.1-26.7,69.6-26.7,69.6c-0.2-0.8-6.9,0.8-7.1,0c-19.8-80.5,20.7-102.9,20.7-102.9
	c-4-12.3,2.5-25.2,2.5-25.2c33.1,8.6,43.4,1,43.4,1c-8.7-21.9,10.6-44.4,10.6-44.4c23.4,27.9,55.5,30.8,55.5,30.8
	C406.2,63.7,382.5,166.3,373.2,191.7z M271.2,43.8c0,0-27-1.5-51-26.7c0,0-13.7,18.3-4,35.8c0,0-13.9,13.6-46.9,5
	c0,0-2.6,6.9,0,19.7c0,0-37.1,19.1-24.2,84.3c0.2,0.8-0.2-0.3,0,0.5c0,0,15.5-60.1,29.8-60.5c0,0,69.6,39.4,125.6-4.5
	c0,0,29.6,39.4,64.1,41.4c0,0,3,8.5,6.6,33.3C371.1,172,401.4,68.6,271.2,43.8z"/>
<path id="new_vector_shape_done" class="st1" d="M228.7,38.3c0.9,0,0.9,0.6,1.2,1.3c0.4,1,0.8,2,1.2,2.9c0.7,1.4,1.4,2.8,2.3,4.1
	c0.7,1.1,1.5,2.1,2.2,3.1c0.4,0.6,1,1.1,1.4,1.7c0.2,0.2,0.4,0.4,0.6,0.7c0.1,0.1,0.1,0.1,0.2,0.2c0.2,0.3,0.5,0.5,0.7,0.8
	c0.2,0.2,0.5,0.5,0.7,0.7c0.4,0.4,0.8,0.8,1.2,1.2c0.1,0.1,0.2,0.2,0.3,0.3c0.4,0.3,0.6,0.6,1,0.9c0.1,0.1,0.1,0.1,0.2,0.2
	c0.5,0.4,0.9,0.8,1.5,1.2c0.8,0.6,1.6,1.3,2.4,1.9c0.6,0.4,1.1,0.8,1.7,1.2c1,0.7,2.1,1.3,3.1,2c0.6,0.4,1.3,0.7,1.9,1.1
	c1.8,1.1,3.8,2.1,5.7,3.1c0.6,0.3,1.3,0.6,1.9,0.9c0.4,0.2,0.9,0.4,1.3,0.6c0.2,0.1,0.4,0.2,0.7,0.3c0.5,0.2,1,0.4,1.5,0.7
	c0.5,0.2,0.9,0.3,1.4,0.5s1.1,0.4,1.6,0.6c0.9,0.3,1.8,0.6,2.7,1c0.9,0.3,1.8,0.6,2.8,0.9c1.8,0.6,3.8,1.1,5.6,1.6
	c0.6,0.2,1.2,0.3,1.7,0.4c0.3,0.1,0.6,0.1,0.9,0.2c0.1,0,0.2,0.2,0.3,0.2c0.1,0.1,0.3,0.3,0.4,0.4c0.2,0.2,0.4,0.5,0.5,0.8
	s0.2,0.7,0.3,1s0,0.6-0.1,0.8c0,0.2,0,0.3-0.1,0.4c-0.1,0.4-0.3,0.8-0.5,1.1c-0.2,0.3-0.8,0.3-1.3,0.2c-0.8-0.2-1.7-0.3-2.5-0.5
	c-0.2,0-0.3,0-0.5-0.1c-0.9-0.3-1.9-0.4-2.8-0.7c-0.2-0.1-0.4-0.1-0.6-0.1c-0.7-0.2-1.4-0.3-2.2-0.6c-1.8-0.6-3.7-1-5.4-1.6
	c-0.4-0.1-0.8-0.2-1.2-0.4c-2.8-1.1-5.6-2.1-8.2-3.4c-0.7-0.3-1.4-0.6-2-1c-1.9-1-3.7-2.1-5.5-3.2c-0.2-0.1-0.5-0.3-0.7-0.5
	c-1-0.7-2-1.4-3-2.1c-1-0.7-1.9-1.6-2.9-2.3c-0.2-0.2-0.4-0.4-0.6-0.5c-0.1-0.1-0.1-0.1-0.2-0.2c-0.2-0.2-0.4-0.4-0.6-0.6
	c-0.5-0.4-1-0.9-1.5-1.4c-0.4-0.4-0.9-0.9-1.3-1.4c-0.1-0.1-0.2-0.2-0.3-0.2c-0.3-0.3-0.6-0.6-0.8-0.9c-0.4-0.6-0.9-1.1-1.4-1.7
	c-0.5-0.7-1.1-1.4-1.6-2.1c-0.5-0.7-1-1.5-1.4-2.2c-1.3-2.1-2.4-4.3-3.3-6.7c-0.4-0.9-0.6-1.8-0.9-2.7c-0.2-0.6-0.3-1.3-0.5-1.9
	c0-0.2,0-0.3-0.1-0.5c-0.1-0.4-0.2-0.8-0.1-1.2c0.1-0.2,0.3-0.4,0.5-0.5C228.5,38.3,228.6,38.4,228.7,38.3z M219.5,66.2
	c0.7,0,1,0.5,1.2,0.9c0.3,0.4,0.7,0.7,1,1.1c0.2,0.2,0.5,0.5,0.7,0.7s0.4,0.4,0.6,0.6c0.2,0.2,0.4,0.4,0.6,0.6
	c0.2,0.2,0.4,0.4,0.7,0.7c0.2,0.2,0.4,0.4,0.6,0.6c0.7,0.5,1.3,1.2,2,1.7c0.7,0.6,1.4,1.2,2.2,1.7c1,0.7,2,1.4,3,2.1
	c0.5,0.3,1.1,0.6,1.6,1c0.4,0.3,0.8,0.5,1.2,0.8c1.7,1,3.5,1.9,5.3,2.8c1.4,0.7,3,1.3,4.4,2c0.5,0.2,0.9,0.3,1.4,0.5
	c1.1,0.4,2.2,0.8,3.3,1.2c1,0.4,2.1,0.7,3.2,1c0.2,0.1,0.3,0.1,0.5,0.1c0.5,0.2,1.2,0.3,1.7,0.5c0.3,0.1,0.6,0.1,0.8,0.2
	c0.6,0.2,1.4,0.9,1.6,1.5c0.4,1,0,2.2-0.5,2.9c-0.1,0.2-0.4,0.5-0.6,0.6c-0.4,0.1-0.8,0-1.2-0.1c-0.5-0.1-0.9-0.2-1.4-0.3
	c-0.9-0.3-1.8-0.4-2.6-0.7c-1.8-0.6-3.6-1.1-5.4-1.7c-4-1.5-7.7-3.3-11.1-5.4c-1.4-0.9-2.7-1.9-4.1-2.8c-0.5-0.3-0.9-0.8-1.4-1.1
	c-0.6-0.5-1.2-1.1-1.8-1.5c-0.1-0.1-0.1-0.1-0.2-0.2c-0.1-0.1-0.3-0.2-0.4-0.3c-0.1-0.1-0.2-0.2-0.3-0.3c-0.2-0.2-0.4-0.4-0.6-0.6
	c-0.2-0.2-0.4-0.4-0.6-0.6c-0.1-0.1-0.3-0.3-0.4-0.4c-0.5-0.6-1-1.1-1.5-1.7c-0.1-0.1-0.3-0.3-0.4-0.4c-0.4-0.6-0.9-1.1-1.3-1.7
	c-0.5-0.7-1-1.4-1.4-2.1c-0.2-0.3-0.3-0.6-0.5-0.8c-0.2-0.3-0.3-0.6-0.5-0.9c-0.1-0.2-0.3-0.4-0.3-0.6c-0.1-0.2-0.1-0.7,0-0.9
	c0.1-0.1,0.3-0.4,0.4-0.4C219.3,66.2,219.4,66.3,219.5,66.2z M207,79.8c0.7,0,0.9,0.6,1.2,1c0.5,0.7,1.1,1.4,1.6,2.1
	c0.4,0.6,1,1,1.4,1.6c0.2,0.2,0.3,0.3,0.5,0.5c0.2,0.3,0.6,0.7,0.9,0.9c0.1,0.1,0.1,0.1,0.2,0.2c0.2,0.2,0.3,0.3,0.5,0.4
	c0.1,0.1,0.2,0.2,0.2,0.3c0.4,0.3,0.8,0.7,1.2,1c1,0.7,1.9,1.5,2.9,2.3c2.2,1.5,4.6,2.8,7.1,4.1c0.8,0.4,1.7,0.7,2.5,1.1
	c0.3,0.2,0.7,0.3,1.1,0.4c1,0.4,2,0.8,3,1.2c1.4,0.5,2.9,0.9,4.3,1.3c0.5,0.2,1,0.2,1.5,0.4c0.4,0.1,0.9,0.2,1.3,0.3
	c0.9,0.3,1.9,0.4,2.8,0.6c0.5,0.1,1.1,0.2,1.6,0.3c0.6,0.1,1.2,0.2,1.7,0.3c0.1,0,0.2,0,0.4,0c0.6,0.1,1.2,0.2,1.8,0.3
	c0.2,0.1,0.5,0,0.7,0.1c0.8,0.2,1.7,0.2,2.6,0.3c0.2,0.1,0.5,0,0.7,0.1c0.1,0,0.1,0,0.2,0c0.3,0.1,0.6,0,0.9,0.1c0.1,0,0.2,0,0.2,0
	c0.5,0.1,1,0,1.5,0.1c0.1,0,0.2,0,0.3,0c0.6,0.1,1.3,0,1.9,0.1c0.2,0,0.5,0,0.7,0c0.1,0,0.3,0,0.5,0c0.4,0.1,1,0,1.4,0.1
	c0.3,0,0.6,0,0.8,0c0.2,0,0.5,0,0.6,0c0.5,0,1,0,1.5,0c1.1,0,2.3,0,3.4,0c0.5,0,1.1-0.1,1.5,0c0.2,0.1,0.5,0.3,0.7,0.4
	c0.4,0.3,0.9,0.8,1.1,1.3c0.1,0.2,0.1,0.3,0.1,0.5c0.1,0.3,0.2,0.8,0.1,1.2c-0.1,0.3-0.1,0.6-0.2,0.8c-0.1,0.4-0.5,0.5-1,0.6
	c-0.2,0-0.3,0-0.5,0c-0.7,0.2-1.5,0-2.2,0.2c-0.1,0-0.3,0-0.4,0c-0.3,0-0.5,0-0.8,0c-0.3,0.1-0.6,0-0.9,0c-0.2,0.1-0.5,0-0.8,0
	c-0.1,0-0.2,0-0.3,0c-0.2,0-0.6,0-0.8,0c-0.4,0-0.7,0-1.1,0c-0.3,0.1-0.8,0-1.2,0c-0.3,0-0.7,0-1,0c-0.2,0-0.4,0-0.6,0
	c-0.4,0-0.9,0-1.3,0c-0.2,0-0.4,0-0.6,0c-0.4-0.1-0.8,0-1.2-0.1c-0.1,0-0.3,0-0.4,0c-0.3-0.1-0.6,0-0.9-0.1c-0.1,0-0.2,0-0.4,0
	s-0.5,0-0.7-0.1c-0.1,0-0.2,0-0.3,0c-0.7-0.2-1.5-0.1-2.2-0.2c-0.2,0-0.4,0-0.6,0c-0.9-0.2-1.8-0.2-2.7-0.4c-0.2-0.1-0.4,0-0.7-0.1
	c-0.8-0.2-1.7-0.2-2.4-0.4c-0.1,0-0.2,0-0.3,0c-0.4-0.1-0.8-0.2-1.2-0.3c-0.2,0-0.3,0-0.5-0.1c-1.3-0.4-2.6-0.6-3.8-0.9
	c-2.2-0.7-4.4-1.3-6.4-2.2c-0.5-0.2-0.9-0.3-1.3-0.5c-0.8-0.4-1.6-0.7-2.4-1.1c-1.2-0.6-2.4-1.2-3.6-1.9c-0.8-0.5-1.6-1-2.4-1.5
	c-0.6-0.4-1.2-0.8-1.9-1.3c-0.6-0.4-1.2-0.9-1.8-1.4c-0.6-0.4-1.1-1-1.7-1.5c-0.2-0.2-0.4-0.5-0.7-0.6c-0.6-0.4-1-1-1.5-1.5
	c-2.1-2.1-3.9-4.6-5.5-7.2c-0.4-0.6-0.6-1.2-1-1.9c-0.1-0.3-0.3-0.7-0.1-1.1c0-0.1,0.3-0.4,0.4-0.4C206.8,79.8,206.9,79.9,207,79.8z
	 M330.4,98.2c0.7,0,0.9,0.5,1.2,0.9c0.3,0.4,0.6,0.8,0.9,1.2c0.6,0.8,1.4,1.5,2,2.4c0.2,0.3,0.5,0.5,0.7,0.8
	c0.1,0.1,0.2,0.2,0.3,0.2c0.3,0.4,0.7,0.7,1.1,1.1c0.3,0.3,0.6,0.6,0.9,0.9c0.5,0.4,0.9,0.9,1.3,1.2c0.3,0.2,0.5,0.5,0.8,0.7
	c0.9,0.7,1.7,1.4,2.6,2.1c1.3,1,2.7,2,4.1,2.9c2.1,1.4,4.3,2.7,6.6,3.9c1.3,0.7,2.6,1.3,4,1.9c0.5,0.2,1,0.4,1.4,0.6
	c0.2,0.1,0.3,0.1,0.5,0.2c0.7,0.4,1.5,0.6,2.3,1c0.2,0.1,0.4,0.1,0.6,0.2c0.7,0.3,1.5,0.6,2.3,0.8c0.4,0.2,0.9,0.2,1.3,0.4
	c1,0.5,1.9,1.7,1.4,3.2c-0.2,0.5-0.5,1-0.8,1.4c-0.2,0.3-0.5,0.4-0.9,0.5c-0.1,0-0.5-0.1-0.6-0.1c-0.5-0.2-1-0.3-1.5-0.4
	c-2.7-0.9-5.2-1.8-7.7-2.9c-4-1.7-7.6-4-10.9-6.3c-1-0.7-1.9-1.5-2.8-2.2c-0.3-0.2-0.5-0.5-0.8-0.7c-0.1-0.1-0.1-0.1-0.2-0.2
	c-0.4-0.3-0.7-0.6-1.1-0.9c-0.2-0.2-0.3-0.3-0.5-0.5c-0.2-0.1-0.3-0.3-0.5-0.5s-0.3-0.3-0.5-0.5c-0.1-0.1-0.2-0.2-0.4-0.3
	c-0.2-0.2-0.4-0.4-0.6-0.7c-0.1-0.1-0.2-0.2-0.3-0.3c-0.2-0.3-0.5-0.6-0.8-0.9c-0.6-0.8-1.3-1.6-1.9-2.4c-0.5-0.8-1.1-1.5-1.6-2.3
	c-0.6-1-1.2-2.1-1.8-3.2c-0.2-0.5-0.5-1.1-0.7-1.6c-0.1-0.2-0.1-0.6,0-0.9c0.1-0.1,0.3-0.3,0.4-0.4
	C330.2,98.2,330.3,98.2,330.4,98.2z"/>
<path id="new_vector_shape_done_1" class="st1" d="M267.4,238.6c0.6,0,1.2,0,1.8,0c3.7,5,5.1,12.6,7.1,19.2c0.6,2,0,5.6-0.5,7.1
	c-1.9,5.3-7.9,5.2-12.9,7.6c-1.3,0.6-2.3,1.7-4,2c-1.1-1-2.5-1.2-3-2.8c-1.4-1.9,0.4-3,1.8-3.8c2.5-1.3,10.2-2.7,11.1-5
	c1.1-1.3,0.4-5.2,0-6.6c-1-3.5-1.4-6.4-2.8-9.6c-0.9-2.1-2.4-4.3-1.5-6.8C265.2,239.5,266.8,239.2,267.4,238.6z"/>
<path id="oko" class="st1" d="M202.6,195.7c5.6,0,10.1,4.5,10.1,10.1s-4.5,10.1-10.1,10.1s-10.1-4.5-10.1-10.1
	S197,195.7,202.6,195.7z"/>
<path id="oko_1" class="st1" d="M314.6,195.7c5.6,0,10.1,4.5,10.1,10.1s-4.5,10.1-10.1,10.1s-10.1-4.5-10.1-10.1
	S309.1,195.7,314.6,195.7z"/>
<g>
	<path class="st1" d="M367.1,176.3c0,1.4,0,2.8,0,4.2l-1.7,74.3c-1.5,65.9-49.6,118-107.5,118s-106-52.1-107.5-118l-1.7-74.3
		c-0.1-2.5,0-4.9,0-7.4h-6.6c0,1.8,0,3.7,0,5.6l1.8,78c1.6,69.1,52.7,123.7,114.2,123.7s112.6-54.6,114.2-123.7l1.8-78
		c0-1.5,0-2.9,0-4.4L367.1,176.3z"/>
</g>
</svg>
