<?xml version="1.0" encoding="utf-8"?>
<!-- Generator: Adobe Illustrator 19.2.1, SVG Export Plug-In . SVG Version: 6.00 Build 0)  -->
<svg version="1.1"
	 id="svg4155" xmlns:cc="http://creativecommons.org/ns#" xmlns:dc="http://purl.org/dc/elements/1.1/" xmlns:rdf="http://www.w3.org/1999/02/22-rdf-syntax-ns#" xmlns:svg="http://www.w3.org/2000/svg"
	 xmlns="http://www.w3.org/2000/svg" xmlns:xlink="http://www.w3.org/1999/xlink" x="0px" y="0px" viewBox="0 0 512 512"
	 style="enable-background:new 0 0 512 512;" xml:space="preserve">
<style type="text/css">
	.st0{fill:#546E7A;}
</style>
<path id="Rounded_Rectangle_13_copy_1_" class="st0" d="M433.2,512.1L433.2,512.1H80.9l0,0h-6.8l1.7-29.1c2.8-47.1,34-85,73.7-96.6
	l3.9,5.7c-38.3,11.3-68.3,47.7-70.9,92.9l-1.2,20.2h351l-0.7-20.2c-2.6-44.2-31.3-80-68.3-92.1l3.2-5.9
	c38.7,12.4,68.8,49.7,71.5,95.9l1.7,29.1L433.2,512.1L433.2,512.1z"/>
<path id="neck_copy_5_1_" class="st0" d="M226.9,364.5v29.8c0,16.9,13.7,30.6,30.6,30.6s30.6-13.7,30.6-30.6v-31.9
	c1.8-0.5,3.5-1.1,5.3-1.8v33.9c0,20-16.2,36.2-36.2,36.2S221,414.5,221,394.5V363C223,363.7,225,363.9,226.9,364.5z"/>
<path id="Rounded_Rectangle_14_1_" class="st0" d="M220.9,421.5c1.9,0,3.4,1.5,3.4,3.4v51.8c0,1.9-1.5,3.4-3.4,3.4s-3.4-1.5-3.4-3.4
	v-51.8C217.4,423,219,421.5,220.9,421.5z"/>
<path id="Rounded_Rectangle_15_1_" class="st0" d="M293,423.9c2,0,3.7,1.7,3.7,3.7v32.2c0,2-1.7,3.7-3.7,3.7s-3.7-1.7-3.7-3.7v-32.2
	C289.3,425.5,290.9,423.9,293,423.9z"/>
<path id="Rounded_Rectangle_16_1_" class="st0" d="M220.9,476.4c1,0,1.8,0.8,1.8,1.8v13.2c0,1-0.8,1.8-1.8,1.8s-1.8-0.8-1.8-1.8
	v-13.2C219,477.2,219.8,476.4,220.9,476.4z"/>
<path id="Rounded_Rectangle_16_copy_1_" class="st0" d="M293.3,459.8c1,0,1.8,0.8,1.8,1.8v13.2c0,1-0.8,1.8-1.8,1.8
	s-1.8-0.8-1.8-1.8v-13.2C291.4,460.6,292.2,459.8,293.3,459.8z"/>
<path id="Shape_1_copy_2_1_" class="st0" d="M259.2,430.2c-2.1,2.6-67.4-1-107.8-36.1c-29.3-25.5,14.8-40.2,14.8-40.2l26.3-6
	l33.9,18l-0.4,37.7C239.9,430.6,262.6,426,259.2,430.2z M224.6,404.3l-4.6-43.5l-22.2-8.2l-26.9,6.6c0,0-39,8-14.3,31.2
	c26.7,25,76.2,31.7,81.4,31.2C243.4,421,236.4,422.8,224.6,404.3z"/>
<path id="Shape_1_copy_6_1_" class="st0" d="M255.4,430.2c2.1,2.6,67.9,0,108.4-35.3c29.3-25.5-14.8-40.3-14.8-40.3l-32.3-7.4
	l-28,14.3l-0.1,42.9C279.3,426,252.1,426,255.4,430.2z M290.3,406.6l2.6-45l19-9.5l32.3,7.9c0,0,39.1,8,14.3,31.3
	c-26.8,25.1-76.2,31.8-81.4,31.3C271.7,421.9,278.5,425.1,290.3,406.6z"/>
<path id="_x32__line" class="st0" d="M382.1,163.7l-1.9,81.5c-1.7,72.3-55.1,129.4-119.5,129.4s-117.8-57.1-119.5-129.4l-1.9-81.5
	C137.5,87,191.8,23.1,260.7,23.1S383.8,87,382.1,163.7z M260.5,31.6c-64.8,0-115.9,60.9-114.2,134l1.8,77.8
	c1.6,68.9,51.9,123.4,112.5,123.4s110.9-54.5,112.5-123.4l1.8-77.8C376.3,92.4,325.2,31.6,260.5,31.6z"/>
<path id="usta" class="st0" d="M317.7,291.9c-9.6,8.3-31.3,16.3-56.5,16.3s-46.9-7.9-56.5-16.3c0,0-1-2.7,0.5-4.1
	c1.5-1.5,3.8-1.1,3.8-1.1c9.6,8.3,27,15.2,52.3,15.2c25.2,0,42.7-6.9,52.3-15.2c0,0,2.3-0.9,3.5,0.3
	C319.2,289.1,317.7,291.9,317.7,291.9z"/>
<path id="_x2D_" class="st0" d="M243.8,320.8h33.8v5.3h-33.8V320.8z"/>
<path id="Shape_3" class="st0" d="M140.9,176.7c0,0-25-7.7-24.1,17.9c0,0,3.7,37.2,5.3,40.6c0,0,9.8,21.7,26,22.6c15.8,0.9,0,0,0,0
	l0.2,7c0,0-28.4-3.6-33.9-36.4l-4.4-29.7c0,0-3.4-39.4,29.3-29.4c31.8,9.8,0,0,0,0L140.9,176.7"/>
<path id="Shape_4" class="st0" d="M132.6,228.4c0,0-1.4,1.1-2.6,1.1s-2.6-1.1-2.6-1.1l-2.6-26c0,0,3.6-12.8,18.6-6l0.4,7.4
	c0,0-13.2-4.7-13,1.2C131.2,210.6,132.6,228.4,132.6,228.4z"/>
<path id="Shape_3_x5F_1" class="st0" d="M380.1,176.8c0,0,25.1-7.7,24.2,17.9c0,0-3.7,37.2-5.4,40.6c0,0-9.8,21.7-26.1,22.6
	c-15.9,0.9,0,0,0,0l-0.2,7c0,0,28.6-3.6,34.1-36.4l4.4-29.7c0,0,3.4-39.4-29.4-29.4c-31.9,9.8,0,0,0,0L380.1,176.8"/>
<path id="Shape_4_x5F_1" class="st0" d="M388.4,228.4c0,0,1.4,1.1,2.6,1.1s2.6-1.1,2.6-1.1l2.6-25.9c0,0-3.6-12.8-18.7-6l-0.4,7.4
	c0,0,13.3-4.7,13,1.2C389.8,210.6,388.4,228.4,388.4,228.4z"/>
<path id="new_vector_shape_done" class="st0" d="M270.5,226.3c0.6,0,1.2,0,1.8,0c3.8,5.2,5.4,13.2,7.4,20.1c0.6,2.1,0,5.9-0.5,7.4
	c-2,5.5-8.3,5.4-13.5,7.9c-1.4,0.7-2.4,1.8-4.2,2.1c-1.2-1-2.6-1.2-3.2-2.9c-1.4-2,0.4-3.2,1.8-4c2.6-1.4,10.6-2.8,11.6-5.3
	c1.2-1.4,0.4-5.4,0-6.9c-1-3.7-1.5-6.7-2.9-10c-0.9-2.2-2.5-4.5-1.6-7.1C268.1,227.3,269.8,226.9,270.5,226.3z"/>
<path id="Rounded_Rectangle_8" class="st0" d="M197.4,185.7h7.4c4.1,0,7.4,3.3,7.4,7.4s-3.3,7.4-7.4,7.4h-7.4
	c-4.1,0-7.4-3.3-7.4-7.4S193.3,185.7,197.4,185.7z"/>
<path id="Rounded_Rectangle_8_copy" class="st0" d="M317.7,185.7h7.4c4.1,0,7.4,3.3,7.4,7.4s-3.3,7.4-7.4,7.4h-7.4
	c-4.1,0-7.4-3.3-7.4-7.4S313.6,185.7,317.7,185.7z"/>
<path id="glasses" class="st0" d="M375.7,170.1c-0.7,6.1-1.3,13.6-2.7,20.2c-3.9,20-21.1,38.4-50.4,40.5s-54.2-12.6-55.7-32.9
	c-0.2-3.4-0.9-7.3-1.4-11.1c-4.1-2.3-8.4-2.3-12.8,0c-0.5,3.8-1.2,7.8-1.5,11.3c-1.5,20.4-26.5,35.1-55.8,33
	c-29.4-2.1-46.6-20.7-50.5-40.7c-1.3-6.7-2-14.2-2.7-20.3l-4.3-0.3l0.6-8.4l1.1,0.1l26.7,1.9l22.5,1.6l22.6,1.6l35.2,2.5
	c2.4,0.3,4,1.3,5.1,2.9c5.1,2.2,10,2.2,14.7,0c1-1.7,2.7-2.8,5.2-3.1l35.1-2.5l22.5-1.6l22.5-1.6l26.6-1.9l1-0.1l0.6,8.4
	L375.7,170.1z M237.2,179.2l-69-5c-9-0.8-12.2,9.4-12.8,17.1c-1.2,16.3,17,30.9,40.5,32.6c23.6,1.7,43.6-10.1,44.8-26.4
	C241.4,189.7,243.9,185,237.2,179.2z M362.5,191.1c-0.6-7.7-3.7-17.8-12.7-17l-68.7,4.9c-6.6,5.7-4.1,10.5-3.6,18.2
	c1.2,16.2,21.1,28,44.6,26.3C345.6,221.8,363.7,207.3,362.5,191.1z"/>
<path id="Shape_7" class="st0" d="M145.7,210c0,0,14.7-64.3,27.5-81.9s23.8-21.8,29.6-22.3c5.7-0.5,50.9,12.8,113-2.5
	c0,0,24.5-1,34.9,23.6c0,0,21.9,39.1,25.4,78.2h4.2c0,0,9-68.5,5.3-109.2c-3.7-40.8-57-60.8-57-60.8l11.6-8.7c0,0-27.1-8.4-38-3.7
	l8.5-17.4c0,0-54.7,0.1-85.6,24.8l1.1-12.4c0,0-108.6,16.7-85.6,189.9L145.7,210z"/>
<path id="Shape_1" class="st0" d="M371.5,291.4c-1.6,7.4-22.1,74.4-18.4,45.4s-35.7,26.3-35.7,26.3c-7.3,7.5-36.7,24.9-36.7,24.9
	v-7.3l-21.6,8.8l-9.7-8.8l-1.1,8.8c-2.9-4.3-61.6-43.9-61.6-43.9s10.1,17.9,2.2,8.8c-0.3-0.3-0.6-0.7-0.9-1
	c-8-10-20.7-35.5-20.7-35.5l-2.2,17.6c-19.1-37.1-18.4-83.4-18.4-83.4l-3.2-96.7h8.6l3.2,68.9l14,23.4c9.1,13.3,33.5,7.3,33.5,7.3
	c70.5,48.9,115.6-2.9,115.6-2.9s30.6,6.8,40,2.9c9.4-3.9,10.8-99.7,10.8-99.7h7.6C376.9,155.1,373,284,371.5,291.4z M320.8,298.8
	c-1.6-18.6-12.9-17-12.9-17c-20.1,5.9-35.9,9.1-48.3,10.8v-0.1c-12.3-1.6-28-4.9-47.9-10.7c0,0-11.2-1.6-12.8,16.9
	c0,0-4.5,14.3,10.7,22.2l19.2,10.6c0,0,13.1,4.1,12.8-11.6c0,0-1.3-2.2,6.4-4.2h11.7v0.3h11.8c7.8,2,6.4,4.3,6.4,4.3
	c-0.3,15.9,12.9,11.7,12.9,11.7l19.3-10.7C325.4,313.2,320.8,298.8,320.8,298.8z"/>
</svg>
