<?xml version="1.0" encoding="utf-8"?>
<!-- Generator: Adobe Illustrator 19.0.1, SVG Export Plug-In . SVG Version: 6.00 Build 0)  -->
<svg version="1.1"
	 id="svg7956" xmlns:cc="http://creativecommons.org/ns#" xmlns:dc="http://purl.org/dc/elements/1.1/" xmlns:rdf="http://www.w3.org/1999/02/22-rdf-syntax-ns#" xmlns:svg="http://www.w3.org/2000/svg"
	 xmlns="http://www.w3.org/2000/svg" xmlns:xlink="http://www.w3.org/1999/xlink" x="0px" y="0px" viewBox="-49 141 512 512"
	 style="enable-background:new -49 141 512 512;" xml:space="preserve">
<style type="text/css">
	.st0{fill:#FFFFFF;}
	.st1{fill:#3B434F;}
	.st2{opacity:5.882400e-002;fill:#3B434F;enable-background:new    ;}
	.st3{fill:#F7FBFB;}
	.st4{fill:#EDF1F1;}
	.st5{fill:#9EA0A4;}
	.st6{opacity:0.2;fill:#3B434F;enable-background:new    ;}
</style>
<path id="body-bg-flat" class="st0" d="M62,645c0,0-10.3-90.3,78.4-100.4h38v-17.5c0,0,26.7,11.5,53.8,1.3l0.9,16.2h44.4
	c0,0,77.3,7.7,72.6,100.4H62z"/>
<path id="Rounded_Rectangle_13_copy_3" class="st1" d="M349.3,646.6L349.3,646.6H64.7l0,0h-5.5l1.4-23.5c2.7-45.9,38.9-81,80.3-81
	h37.5v4.7h-35c-39.9,0-74.8,33.7-77.4,78l-1,16.3h283.4l-0.5-16.3c-2.6-44.2-37.5-78-77.4-78h-35.4v-4.7h37.7
	c41.4,0,77.6,35.1,80.3,81l1.4,23.5H349.3z"/>
<path id="neck_copy_7" class="st1" d="M181.4,525.1v26.3c0,13.7,11.1,24.7,24.7,24.7s24.7-11.1,24.7-24.7v-25.8
	c1.4-0.4,2.9-0.9,4.3-1.4v27.4c0,16.1-13.1,29.2-29.2,29.2s-29.2-13.1-29.2-29.2v-28.2C178.3,524.1,179.8,524.6,181.4,525.1z"/>
<path id="Rounded_Rectangle_2" class="st1" d="M282.7,598.5l-12.1,25.2c-0.6,1.3-2.1,1.8-3.4,1.2c-1.3-0.6-1.8-2.1-1.2-3.4
	l11.7-24.3l-9.1-15.8c-0.7-1.2-0.3-2.8,0.9-3.5c1.2-0.7,2.8-0.3,3.5,0.9l9.8,17C283.3,596.7,283.2,597.7,282.7,598.5z"/>
<path id="Rounded_Rectangle_2_copy_3" class="st1" d="M129.4,598.5l12.2,25.3c0.6,1.3,2.2,1.8,3.4,1.2c1.3-0.6,1.8-2.1,1.2-3.4
	l-11.7-24.4l9.2-15.8c0.7-1.2,0.3-2.8-0.9-3.5c-1.2-0.7-2.8-0.3-3.5,0.9l-9.9,17C128.8,596.7,128.8,597.7,129.4,598.5z"/>
<path id="Rectangle_24" class="st1" d="M176.7,541.2h4.7v103.7h-4.7V541.2z"/>
<path id="Rectangle_24_copy" class="st1" d="M230.9,542.1h4.7v103.7h-4.7V542.1z"/>
<path id="_x32__copy_5" class="st0" d="M207.2,257.5c53.1,0,95,49.6,93.6,109.2l-1.4,63.3c-1.3,56.1-42.5,100.5-92.2,100.5
	s-90.9-44.4-92.2-100.5l-1.4-63.3C112.2,307.1,154.1,257.5,207.2,257.5z"/>
<path id="_x32__line" class="st1" d="M305.1,364.7l-1.5,65.9C302.2,489,259,535.2,207,535.2s-95.2-46.2-96.6-104.6l-1.5-65.9
	c-1.4-62,42.5-113.6,98.1-113.6S306.5,302.7,305.1,364.7z M206.8,257.9c-52.4,0-93.7,49.2-92.3,108.3l1.4,62.8
	c1.3,55.7,42,99.7,90.9,99.7s89.6-44,90.9-99.7l1.4-62.8C300.5,307.1,259.1,257.9,206.8,257.9z"/>
<path id="_x31__copy_4" class="st2" d="M302.4,375.7l-4.3,70c0,0-19,80.8-92.2,90.3v0.1c-0.1,0-0.3,0-0.4-0.1c-0.1,0-0.3,0-0.4,0.1
	V536c-73.2-9.6-92.2-90.3-92.2-90.3l-4.3-70c19,84.3,35,89.6,35,89.6c-3.2-25.6,23-23,23-23c16,2.7,28.8,4,38.8,4.5
	c10.1-0.5,22.8-1.8,38.8-4.5c0,0,26.3-2.5,23,23C267.4,465.3,283.4,460,302.4,375.7z M255,473.9c-1.2-15-10.3-13.8-10.3-13.8
	c-16.1,4.7-28.8,7.4-38.7,8.7v-0.1c-9.8-1.3-22.4-3.9-38.4-8.6c0,0-9-1.3-10.2,13.7c0,0-3.6,14.9,8.5,21.3l15.4,16.2
	c0,0,10.5,3.3,10.2-9.4c0,0-1.1-9.5,5.1-11.1h9.4v0.3h9.5c6.2,1.6,5.2,11.2,5.2,11.2c-0.3,12.8,10.3,9.5,10.3,9.5l15.5-16.3
	C258.6,489,255,473.9,255,473.9z"/>
<path id="Rounded_Rectangle_3" class="st1" d="M196.8,496.8h20.5c0.9,0,1.7,0.8,1.7,1.7c0,0.9-0.8,1.7-1.7,1.7h-20.5
	c-0.9,0-1.7-0.8-1.7-1.7C195.1,497.6,195.8,496.8,196.8,496.8z"/>
<path id="_x32_" class="st1" d="M178.8,476.4l2.4-3.3c7.6,4.4,16.7,6.9,26.5,6.9c9.8,0,19-2.6,26.7-7.1l2.5,3.4
	c-8.4,4.8-18.3,7.7-29,7.7C197.1,484,187.2,481.2,178.8,476.4z"/>
<path id="Shape_11_copy" class="st3" d="M108.8,374.3c0,0-1-0.8-3-1.4c-1-0.3-2.2-0.6-3.6-0.6c-0.3,0-0.7,0-1.1,0s-0.7,0-1.1,0.1
	c-0.8,0.1-1.5,0.2-2.3,0.5c-3.2,0.9-6.4,3.1-8.3,7.7c-0.9,2.3-1.6,5.1-1.7,8.7c0,0.9-0.1,1.8,0,2.8c0,1,0.1,2,0.1,3.1
	c0.2,2.2,0.5,4.5,0.9,7.1c0,0-0.4,7.8,2.4,16.7c2.6,8.7,8.9,19.5,20.5,22.5C110.2,419.2,110.2,396.6,108.8,374.3L108.8,374.3z"/>
<path id="Shape_3" class="st1" d="M110.1,375.2c0,0-20.2-6.3-19.5,14.5c0,0,3,30.1,4.3,32.8c0,0,7.9,17.5,21,18.3c12.8,0.8,0,0,0,0
	l0.2,5.6c0,0-23-2.9-27.4-29.4L85.2,393c0,0-2.7-31.8,23.7-23.7c25.7,7.9,0,0,0,0L110.1,375.2"/>
<path id="Shape_4" class="st1" d="M103.5,417c0,0-1.1,0.9-2.1,0.9s-2.1-0.9-2.1-0.9l-2.1-21c0,0,2.9-10.3,15.1-4.9l0.3,6
	c0,0-10.7-3.8-10.5,0.9C102.3,402.6,103.5,417,103.5,417z"/>
<path id="Shape_11_copy_x5F_1" class="st3" d="M304.8,374.4c0,0,1.1-0.8,3-1.4c1-0.3,2.2-0.6,3.6-0.6c0.3,0,0.7,0,1.1,0
	c0.4,0,0.7,0,1.1,0.1c0.8,0.1,1.5,0.2,2.3,0.5c3.2,0.9,6.4,3.1,8.3,7.6c1,2.3,1.6,5.1,1.7,8.7c0,0.9,0.1,1.8,0,2.8
	c0,1-0.1,2-0.1,3.1c-0.2,2.2-0.5,4.5-0.9,7.1c0,0,0.4,7.8-2.4,16.7c-2.6,8.7-8.9,19.4-20.6,22.5
	C303.4,419.2,303.4,396.6,304.8,374.4L304.8,374.4z"/>
<path id="Shape_3_x5F_1" class="st1" d="M303.5,375.3c0,0,20.3-6.2,19.6,14.5c0,0-3,30.1-4.3,32.8c0,0-8,17.5-21.1,18.3
	c-12.8,0.8,0,0,0,0l-0.2,5.6c0,0,23.1-2.9,27.5-29.4l3.5-24c0,0,2.7-31.8-23.8-23.7c-25.8,7.9,0,0,0,0L303.5,375.3"/>
<path id="Shape_4_x5F_1" class="st1" d="M310.2,417c0,0,1.1,0.9,2.1,0.9s2.1-0.9,2.1-0.9l2.1-21c0,0-2.9-10.3-15.1-4.9l-0.3,6
	c0,0,10.7-3.8,10.5,0.9C311.4,402.6,310.2,417,310.2,417z"/>
<path id="new_vector_shape_done" class="st1" d="M214.9,415.3c0.5,0,1,0,1.5,0c3.1,4.2,4.3,10.6,6,16.2c0.5,1.7,0,4.8-0.4,6
	c-1.6,4.5-6.7,4.4-10.9,6.4c-1.1,0.5-2,1.5-3.4,1.7c-0.9-0.8-2.1-1-2.6-2.3c-1.2-1.6,0.3-2.6,1.5-3.2c2.1-1.1,8.6-2.2,9.4-4.3
	c1-1.1,0.3-4.4,0-5.5c-0.8-3-1.2-5.4-2.3-8.1c-0.7-1.8-2.1-3.6-1.3-5.8C213,416.1,214.4,415.8,214.9,415.3z"/>
<path id="eye" class="st1" d="M160.1,379.1c4.7,0,8.5,3.8,8.5,8.5s-3.8,8.5-8.5,8.5s-8.5-3.8-8.5-8.5S155.4,379.1,160.1,379.1z"/>
<path id="eye_1" class="st1" d="M254.8,379.1c4.7,0,8.5,3.8,8.5,8.5s-3.8,8.5-8.5,8.5c-4.7,0-8.5-3.8-8.5-8.5
	S250.1,379.1,254.8,379.1z"/>
<path id="Ellipse_3" class="st4" d="M258.6,410.6c5.9,0,10.7,4.8,10.7,10.7s-4.8,10.7-10.7,10.7c-5.9,0-10.7-4.8-10.7-10.7
	S252.7,410.6,258.6,410.6z"/>
<path id="Ellipse_3_copy" class="st4" d="M155.4,410.6c5.9,0,10.7,4.8,10.7,10.7s-4.8,10.7-10.7,10.7c-5.9,0-10.7-4.8-10.7-10.7
	S149.5,410.6,155.4,410.6z"/>
<path id="Shape_1_copy_5" class="st1" d="M292.3,371.4V403c0,7.7-7.5,19.8-19.8,20.4c-1.8-0.1-38.2,0-38.2,0
	c-16.4,0-19.6-19.6-19.6-19.6v-21.3h-15.4v21.3c0,0-3.2,19.6-19.6,19.6c0,0-36.4-0.1-38.2,0c-12.3-0.7-19.8-12.7-19.8-20.4v-31.6
	H108v-8.5h79.4c0,0,11.9,1.9,11.9,10.2h15.4c0-8.3,11.9-10.2,11.9-10.2H306v8.5H292.3z M190.8,375.7c0-3-3.4-3.4-3.4-3.4h-57.2v29.9
	c0,9.3,12.8,12.8,12.8,12.8h35c12,0,12.8-12.8,12.8-12.8S190.8,378.7,190.8,375.7z M283.8,372.2h-57.2c0,0-3.4,0.4-3.4,3.4
	c0,3,0,26.5,0,26.5s0.8,12.8,12.8,12.8h35c0,0,12.8-3.5,12.8-12.8V372.2z M271.9,423.4c0.2,0,0.5,0,0.7,0
	C272.7,423.4,272.5,423.4,271.9,423.4z M141.5,423.4c0.2,0,0.5,0,0.7,0C141.5,423.4,141.3,423.4,141.5,423.4z"/>
<path id="Shape_6_copy_3" class="st5" d="M111.8,370.5c0,0,3.3-51.4,35-74.2c0,0,45.8,31.2,117.8,0c0,0,31.9,14.5,36.7,74.2h1.7
	c0,0,9.1-68.4-14.5-95.6c0,0-5.8-20.8-36.7-35.8l-11.1,6.8c0,0-7.5-9.1-27.3-20.5c0,0-14.7,6.5-22.2,17.9l-12-7.7
	c0,0-16.7,7.6-26.5,21.3l-17.9,2.6l-9.4,17.1c0,0-22.4,18.1-15.4,92.2L111.8,370.5z"/>
<path id="Shape_6_copy" class="st1" d="M306.4,370.5l-8.1-0.4c-4.9-59.7-33.7-70.4-33.7-70.4c-72,31.2-117.8-0.4-117.8-0.4
	c-27.7,23.6-32,71.7-32,71.7l-7.3-2.1c-7-74.1,15.4-93.4,15.4-93.4l10.2-18.8l18.8-2.6c9.8-13.7,27.8-22.2,27.8-22.2l11.2,7.3
	c7.5-11.4,23-17.1,23-17.1c19.9,11.4,27.3,20.1,27.3,20.1l11.5-6.4c30.9,15,39.3,38.8,39.3,38.8
	C315.6,301.7,306.4,370.5,306.4,370.5z M286.4,276.2c0,0-3.7-18.7-34.6-33.7l-11.5,6.8c0,0-7.4-9.1-27.3-20.5c0,0-13.4,7-20.9,18.3
	l-12.8-8.1c0,0-15.4,7.2-25.2,20.9l-17.1,2.6l-9,16.2c0,0-18.6,14.2-16.6,71.7l0.4-0.4c0,0,5.9-35.7,34.9-57.6
	c0,0,47.1,32,119.1,0.9c0,0,26.6,12.5,35.8,57.2C301.7,350.5,307.2,304.5,286.4,276.2z"/>
<path id="Shape_34" class="st1" d="M194,592l12-13l13,13l-7,7l11,45h-34l12-45L194,592z"/>
<path id="Rectangle_24_copy_4" class="st1" d="M220.7,644.7l-12.1-45.1l2.5-0.8l1.7-1.8l12.8,47.7L220.7,644.7z M186.6,644.2
	l12.6-46.9l0.8,0.7l2.6,1.7l0.8,0.1l-12,44.5L186.6,644.2z"/>
<path id="Ellipse_6" class="st1" d="M235.1,604.8l-3.3,3.3l-12.9-12.9c-2.5,4-6.9,6.6-11.9,6.6c-5.2,0-9.8-2.9-12.2-7.1l-13.5,13.5
	l-3.3-3.3l26.5-26.5l2.1-1.9l2.1,1.9L235.1,604.8z M197.4,592.1c1.7,3.5,5.3,5.9,9.4,5.9c4,0,7.5-2.3,9.3-5.6l-9.4-9.4L197.4,592.1z
	"/>
<path id="new_x5F_vector_x5F_shape_x5F_done_copy" class="st6" d="M208.1,244.7c0.6,0.5,0.3,0.9,0.2,1.5c-0.2,0.9-0.4,1.7-0.6,2.6
	c-0.2,1.3-0.4,2.6-0.4,3.9c0,1.1,0,2.2,0,3.3c0,0.6,0.1,1.2,0.1,1.9c0,0.2,0.1,0.5,0.1,0.8c0,0.1,0,0.1,0,0.2c0,0.3,0.1,0.6,0.1,0.9
	c0.1,0.3,0.1,0.6,0.2,0.9c0.1,0.5,0.1,0.9,0.3,1.4c0,0.1,0,0.2,0,0.3c0.1,0.4,0.1,0.7,0.3,1.1c0,0.1,0,0.1,0,0.2
	c0.2,0.5,0.2,1.1,0.4,1.6c0.3,0.8,0.5,1.7,0.8,2.5c0.2,0.5,0.4,1.1,0.6,1.7c0.3,1,0.8,1.9,1.1,2.9c0.2,0.6,0.5,1.1,0.8,1.7
	c0.7,1.7,1.6,3.3,2.5,4.9c0.3,0.5,0.6,1,0.9,1.5c0.2,0.3,0.4,0.7,0.6,1c0.1,0.2,0.2,0.3,0.3,0.5c0.2,0.4,0.5,0.8,0.7,1.2
	c0.2,0.4,0.5,0.7,0.7,1c0.3,0.4,0.5,0.8,0.8,1.2c0.4,0.7,0.9,1.3,1.4,2c0.5,0.7,1,1.3,1.5,2c0.9,1.3,2.1,2.6,3.1,3.9
	c0.3,0.4,0.7,0.7,1,1.1c0.2,0.2,0.4,0.4,0.5,0.6c0,0.1,0.1,0.2,0.1,0.3c0,0.1,0,0.3,0,0.5c0,0.3,0,0.5,0,0.8c0,0.3-0.2,0.6-0.3,0.8
	c-0.1,0.2-0.3,0.4-0.4,0.5c-0.1,0.1-0.2,0.2-0.3,0.3c-0.3,0.2-0.6,0.4-0.9,0.5c-0.3,0.1-0.7-0.2-1-0.5c-0.4-0.5-1-1-1.4-1.6
	c-0.1-0.1-0.2-0.2-0.3-0.3c-0.5-0.6-1.1-1.2-1.6-1.8c-0.1-0.1-0.2-0.2-0.3-0.4c-0.4-0.5-0.8-0.9-1.2-1.4c-1-1.3-2-2.5-2.9-3.8
	c-0.2-0.3-0.4-0.5-0.6-0.8c-1.4-2.1-2.8-4.2-4-6.4c-0.3-0.6-0.6-1.1-0.9-1.7c-0.8-1.6-1.5-3.2-2.2-4.9c-0.1-0.2-0.2-0.5-0.2-0.7
	c-0.4-1-0.7-1.9-1-2.9c-0.3-1-0.5-2-0.8-3c-0.1-0.2-0.1-0.4-0.2-0.7c0-0.1,0-0.2,0-0.2c-0.1-0.2-0.1-0.5-0.2-0.7
	c-0.2-0.5-0.2-1.1-0.3-1.7c-0.1-0.5-0.2-1.1-0.2-1.6c0-0.1,0-0.2-0.1-0.3c0-0.4-0.1-0.7-0.1-1c0-0.6-0.1-1.2-0.1-1.8
	c0-0.7,0-1.5,0-2.3c0-0.8,0.1-1.5,0.1-2.2c0.1-2.1,0.5-4.1,1-6.2c0.2-0.8,0.5-1.5,0.7-2.3c0.2-0.5,0.4-1,0.6-1.6
	c0-0.1,0.1-0.2,0.2-0.4c0.1-0.3,0.3-0.7,0.5-0.9c0.1-0.1,0.4-0.1,0.5-0.1C208,244.6,208,244.7,208.1,244.7z M188.1,259.4
	c0.5,0.3,0.4,0.8,0.4,1.2c0,0.4,0.1,0.8,0.1,1.3c0,0.3,0.1,0.6,0.1,0.9c0,0.2,0.1,0.5,0.1,0.7c0,0.2,0.1,0.5,0.1,0.7
	c0,0.3,0.1,0.5,0.1,0.8c0.1,0.2,0.1,0.5,0.2,0.7c0.2,0.7,0.3,1.5,0.5,2.2c0.2,0.7,0.4,1.5,0.7,2.3c0.3,1,0.7,1.9,1,2.9
	c0.2,0.5,0.4,1,0.6,1.4c0.2,0.4,0.3,0.8,0.5,1.2c0.7,1.5,1.5,3,2.3,4.6c0.6,1.2,1.4,2.4,2.1,3.5c0.2,0.4,0.5,0.7,0.7,1
	c0.5,0.8,1.1,1.6,1.7,2.5c0.5,0.8,1.1,1.5,1.7,2.2c0.1,0.1,0.2,0.2,0.3,0.3c0.3,0.4,0.6,0.8,0.9,1.2c0.2,0.2,0.3,0.3,0.5,0.5
	c0.3,0.5,0.5,1.3,0.3,1.8c-0.3,0.9-1.1,1.5-1.8,1.8c-0.2,0.1-0.5,0.2-0.7,0.1c-0.3-0.1-0.6-0.4-0.8-0.7c-0.3-0.3-0.6-0.6-0.8-0.9
	c-0.5-0.6-1-1.1-1.5-1.8c-1-1.3-2-2.5-2.8-3.8c-2-3-3.7-6-5-9.2c-0.5-1.3-1-2.6-1.4-3.9c-0.2-0.5-0.2-1-0.4-1.4
	c-0.2-0.6-0.3-1.3-0.5-1.9c0-0.1,0-0.2,0-0.3c0-0.1-0.1-0.3-0.1-0.4c0-0.1,0-0.2,0-0.4c-0.1-0.2-0.1-0.5-0.1-0.7
	c0-0.2-0.1-0.5-0.1-0.7c0-0.2-0.1-0.3-0.1-0.5c0-0.6-0.2-1.3-0.2-1.9c0-0.2-0.1-0.3-0.1-0.5c0-0.6-0.1-1.2-0.1-1.9
	c0-0.7,0-1.4,0-2.1c0-0.3,0.1-0.5,0.1-0.8c0-0.3,0.1-0.6,0.1-0.9c0-0.2,0-0.4,0.1-0.6c0.1-0.2,0.3-0.5,0.4-0.6
	c0.1-0.1,0.4-0.1,0.5-0.1C188,259.3,188,259.4,188.1,259.4z M172.8,262.6c0.5,0.4,0.4,0.8,0.4,1.3c0,0.7,0.1,1.5,0.1,2.2
	c0,0.6,0.2,1.2,0.2,1.8c0,0.2,0.1,0.4,0.1,0.6c0,0.3,0.1,0.7,0.2,1.1c0,0.1,0,0.2,0,0.2c0,0.2,0.1,0.4,0.1,0.5c0,0.1,0,0.2,0,0.3
	c0.1,0.4,0.2,0.9,0.3,1.3c0.3,1,0.6,2,0.9,3c0.8,2.1,1.8,4.2,2.9,6.3c0.4,0.7,0.8,1.3,1.2,2c0.2,0.3,0.4,0.5,0.5,0.8
	c0.5,0.8,1,1.5,1.5,2.3c0.7,1.1,1.6,2,2.3,3c0.3,0.4,0.6,0.7,0.9,1c0.2,0.3,0.5,0.5,0.8,0.9c0.5,0.6,1.1,1.2,1.6,1.8
	c0.3,0.4,0.6,0.6,0.9,1c0.3,0.4,0.7,0.7,1,1c0.1,0.1,0.2,0.1,0.2,0.2c0.3,0.4,0.8,0.7,1.1,1.1c0.1,0.2,0.3,0.2,0.5,0.4
	c0.5,0.5,1.1,1,1.6,1.5c0.1,0.2,0.3,0.3,0.4,0.4c0.1,0,0.1,0.1,0.2,0.1c0.2,0.2,0.4,0.4,0.6,0.5c0.1,0,0.1,0.1,0.2,0.1
	c0.3,0.3,0.7,0.5,1,0.8c0.1,0.1,0.1,0.1,0.2,0.2c0.4,0.4,0.9,0.7,1.3,1.1c0.2,0.1,0.3,0.2,0.5,0.4c0.1,0.1,0.2,0.2,0.3,0.3
	c0.2,0.3,0.7,0.5,0.9,0.7c0.2,0.2,0.4,0.3,0.5,0.4c0.1,0.1,0.3,0.2,0.4,0.3c0.3,0.2,0.7,0.5,1,0.7c0.8,0.6,1.6,1.1,2.3,1.6
	c0.4,0.3,0.8,0.5,1,0.8c0.1,0.2,0.2,0.4,0.2,0.6c0.1,0.4,0.2,1,0.1,1.5c0,0.1-0.1,0.2-0.2,0.4c-0.1,0.2-0.2,0.6-0.5,0.9
	c-0.2,0.2-0.4,0.4-0.5,0.5c-0.3,0.2-0.6,0.1-1-0.1c-0.1-0.1-0.2-0.2-0.3-0.2c-0.5-0.2-1.1-0.7-1.6-1c-0.1,0-0.2-0.2-0.3-0.2
	c-0.2-0.1-0.4-0.2-0.5-0.4c-0.2-0.1-0.4-0.3-0.6-0.4c-0.2-0.1-0.4-0.2-0.6-0.4c-0.1,0-0.1-0.1-0.2-0.1c-0.2-0.1-0.4-0.2-0.6-0.4
	c-0.2-0.2-0.5-0.4-0.7-0.5c-0.3-0.1-0.6-0.4-0.8-0.6c-0.2-0.2-0.5-0.3-0.7-0.5c-0.1-0.1-0.3-0.2-0.4-0.3c-0.3-0.2-0.6-0.4-0.9-0.7
	c-0.1-0.1-0.3-0.2-0.4-0.3c-0.2-0.2-0.6-0.4-0.8-0.6c-0.1-0.1-0.2-0.1-0.3-0.2c-0.2-0.2-0.4-0.3-0.6-0.5c-0.1-0.1-0.2-0.1-0.3-0.2
	c-0.1-0.1-0.3-0.3-0.4-0.4c-0.1,0-0.1-0.1-0.2-0.1c-0.4-0.4-1-0.8-1.4-1.2c-0.1-0.1-0.2-0.2-0.4-0.3c-0.5-0.6-1.2-1-1.7-1.6
	c-0.1-0.2-0.3-0.2-0.4-0.4c-0.5-0.5-1-1-1.5-1.5c-0.1-0.1-0.1-0.1-0.2-0.2c-0.2-0.2-0.5-0.5-0.7-0.7c-0.1-0.1-0.2-0.2-0.3-0.3
	c-0.7-0.9-1.5-1.6-2.2-2.5c-1.2-1.5-2.4-3-3.3-4.6c-0.2-0.4-0.5-0.7-0.7-1c-0.4-0.6-0.8-1.3-1.1-1.9c-0.5-1-1-2-1.5-3.1
	c-0.3-0.7-0.6-1.5-0.9-2.2c-0.2-0.6-0.4-1.2-0.7-1.8c-0.2-0.6-0.4-1.2-0.6-1.8c-0.2-0.6-0.3-1.3-0.5-1.9c-0.1-0.2-0.1-0.5-0.1-0.8
	c-0.2-0.6-0.2-1.2-0.3-1.8c-0.4-2.5-0.5-5.1-0.3-7.7c0-0.6,0.2-1.2,0.3-1.8c0-0.3,0.1-0.6,0.4-0.8c0.1-0.1,0.4-0.1,0.5-0.1
	C172.7,262.5,172.7,262.6,172.8,262.6z"/>
</svg>
